<?xml version="1.0" encoding="UTF-8"?>
<svg version="1.1" xmlns="http://www.w3.org/2000/svg" width="4908" height="1947">
<path d="M0 0 C5.75737679 0.17416367 11.51480271 0.34661892 17.27226102 0.51806521 C97.21688338 2.89983479 177.14885875 5.61745448 702.20609891 40.7876575 C703.05140165 40.9732825 703.89670438 41.1589075 704.76762235 41.3501575 C707.03289351 41.8937476 709.23761465 42.51542622 711.45609891 43.2251575 C712.17217313 43.45316043 712.88824735 43.68116336 713.62602079 43.91607547 C719.06967922 46.0887192 721.15595734 49.18074847 723.46781766 54.48101687 C725.06656555 58.92022791 726.10352965 63.33911835 726.95609891 67.9751575 C727.15912626 69.04403201 727.3621536 70.11290652 727.57133329 71.21417117 C744.7008596 165.01150428 746.35159794 262.90352833 770.31425321 894.17993045 C770.40897756 898.24009235 770.50630851 902.30017941 770.60575712 906.3602283 C771.72736016 952.33853436 771.50175003 998.19009283 770.36554945 1044.16729999 C770.26641611 1048.18870411 770.16891687 1052.21014523 770.07173002 1056.23159671 C768.07335388 1138.72933636 765.656517 1221.2192879 726.89359891 1872.0376575 C726.70789335 1872.96328494 726.52218778 1873.88891238 726.33085477 1874.84258914 C724.83873272 1881.66748719 723.06597174 1888.44399768 718.19438016 1893.63531375 C714.79803961 1895.60722617 711.42496542 1896.71844238 707.64359891 1897.6626575 C706.39945219 1897.97505374 706.39945219 1897.97505374 705.13017118 1898.29376101 C615.76126763 1919.64767669 516.80447633 1918.39979081 9.84724271 1939.40984988 C8.66891376 1939.44473104 8.66891376 1939.44473104 7.46678019 1939.48031688 C0.94730813 1939.67327449 0.94730813 1939.67327449 -1.90762746 1939.75768352 C-12.44873989 1940.06960375 -22.9893756 1940.393785 -33.52974093 1940.73004031 C-120.05166432 1943.48468094 -206.61832368 1944.60244492 -410.54008257 1939.60513985 C-420.21043188 1939.29793473 -429.88097627 1938.99753716 -439.55164301 1938.70050263 C-524.93770332 1936.07701089 -610.31707746 1933.19183949 -1104.79390109 1899.7251575 C-1105.757717 1899.54791141 -1106.72153292 1899.37066531 -1107.71455538 1899.18804812 C-1114.45457251 1897.80870704 -1122.47378678 1896.05111346 -1126.97090304 1890.44683719 C-1128.064297 1888.40147822 -1128.84046881 1886.43438225 -1129.54390109 1884.2251575 C-1129.76803683 1883.52455203 -1129.99217257 1882.82394656 -1130.2231003 1882.10211062 C-1130.89738715 1879.73975269 -1131.45447024 1877.37470542 -1131.98140109 1874.9751575 C-1132.18894015 1874.03446414 -1132.39647921 1873.09377078 -1132.61030734 1872.12457156 C-1150.37271594 1787.56587639 -1150.98435851 1697.29846598 -1173.79390109 1134.6001575 C-1173.81491586 1133.83948332 -1173.83593063 1133.07880915 -1173.85758221 1132.29508424 C-1174.3739458 1113.59485741 -1174.87748505 1094.89433704 -1175.36241305 1076.19326663 C-1175.47603313 1071.81301532 -1175.59160669 1067.43282728 -1175.71000826 1063.05270267 C-1176.48665034 1034.25653777 -1176.82976411 1005.46935699 -1176.85640109 976.6626575 C-1176.85769896 975.48943313 -1176.85899683 974.31620875 -1176.86033404 973.10743213 C-1176.91712958 904.26205071 -1174.85693088 835.46357175 -1172.76905876 766.65594959 C-1172.59515086 760.92413161 -1172.4226771 755.19227199 -1172.25099337 749.46038699 C-1169.85815061 669.63240907 -1167.12329392 589.81632705 -1131.98140109 64.4751575 C-1131.70296359 63.20708255 -1131.70296359 63.20708255 -1131.41890109 61.91338992 C-1128.41749186 49.4070869 -1128.41749186 49.4070869 -1123.83174288 45.92510867 C-1058.64361449 11.07743719 -939.28761618 22.56876223 -418.51834261 0.37545657 C-414.36173171 0.24997631 -410.20514415 0.12373943 -406.04856199 -0.00268918 C-315.2805515 -2.76230955 -224.53376351 -5.31930565 0 0 Z " fill="#FEEC00" transform="translate(1176.5439010858536,3.7748425006866455)"/>
<path d="M0 0 C14.60888409 13.4563094 22.49411745 34.24873447 26.85546875 53.19921875 C27.15179199 54.46789795 27.15179199 54.46789795 27.45410156 55.76220703 C34.54279236 88.10218347 33.45764373 125.70460666 27.85546875 158.19921875 C27.65147461 159.40771484 27.44748047 160.61621094 27.23730469 161.86132812 C18.85813548 210.38001098 2.78935754 255.2025521 -19.14453125 299.19921875 C-19.56557129 300.04532715 -19.98661133 300.89143555 -20.42041016 301.76318359 C-32.17228784 325.18647906 -46.6242229 346.91625693 -61.76416016 368.25048828 C-64.57619906 372.22036704 -67.3606115 376.20958728 -70.14453125 380.19921875 C-64.61480069 392.93355019 -56.99791544 400.94796025 -44.23828125 406.453125 C-18.32661362 415.47818399 12.30857467 407.13180605 36.11328125 395.72265625 C53.43336061 387.12175369 68.54816771 376.14874476 82.85546875 363.19921875 C83.41194092 362.76464355 83.96841309 362.33006836 84.54174805 361.88232422 C86.46027799 359.42435258 85.99368654 357.82349519 85.6328125 354.7734375 C85.51405762 353.69755371 85.39530273 352.62166992 85.27294922 351.51318359 C85.06629639 349.872771 85.06629639 349.872771 84.85546875 348.19921875 C84.74219238 347.22807129 84.62891602 346.25692383 84.51220703 345.25634766 C84.27947396 343.26459331 84.04262734 341.27331648 83.80224609 339.2824707 C78.93243686 297.83340188 79.24875342 255.87799523 78.85546875 214.19921875 C78.84580078 213.19143372 78.83613281 212.18364868 78.82617188 211.14532471 C78.71632163 199.16187774 78.72831999 187.18245925 78.85546875 175.19921875 C78.86642578 174.15785767 78.87738281 173.11649658 78.88867188 172.0435791 C80.39082914 34.96678704 80.39082914 34.96678704 112.85546875 1.19921875 C127.06193924 -12.43709239 145.8514323 -17.24971462 165.0859375 -17.00390625 C182.59176806 -16.06058688 198.60762041 -9.39167734 210.53564453 3.63818359 C214.59347859 8.43762699 217.76479183 13.74580878 220.85546875 19.19921875 C221.40847656 20.153125 221.96148438 21.10703125 222.53125 22.08984375 C233.92504242 43.1698318 237.93204226 69.12503971 238.05859375 92.8515625 C238.0691832 94.18542496 238.0691832 94.18542496 238.07998657 95.54623413 C238.20088421 115.28089427 238.0880847 134.6786331 234.85546875 154.19921875 C234.65679199 155.40723145 234.45811523 156.61524414 234.25341797 157.85986328 C221.46666842 233.24900615 187.71231111 311.63904172 136.96875 369.51953125 C134.54166154 372.05648552 134.54166154 372.05648552 134.73046875 375.44921875 C138.45949376 387.8793021 145.91598042 397.7151342 157.3671875 404.01953125 C176.22431306 412.95964415 198.92601344 410.63397409 218.17578125 404.06640625 C221.14409272 402.89613201 223.99111834 401.60400262 226.85546875 400.19921875 C227.9228125 399.68488281 228.99015625 399.17054688 230.08984375 398.640625 C258.38592023 384.26010726 278.25916131 355.84093548 288.29296875 326.26171875 C294.14063707 307.9305956 296.92298084 289.15611082 297.171875 269.9765625 C297.19249117 268.62178481 297.2134887 267.26701288 297.23484802 265.9122467 C297.28958801 262.37619743 297.33920564 258.84009484 297.38769531 255.30395508 C297.43826538 251.68370924 297.49376456 248.06353916 297.54882812 244.44335938 C297.65582003 237.36204509 297.75739153 230.28066258 297.85546875 223.19921875 C299.74731881 222.70223972 301.64089325 222.21182233 303.53515625 221.72412109 C304.58944824 221.45030609 305.64374023 221.17649109 306.72998047 220.89437866 C311.14466554 219.91248022 315.35079725 219.75882836 319.85546875 219.82421875 C320.6546875 219.81261719 321.45390625 219.80101562 322.27734375 219.7890625 C327.1316144 219.81225169 331.47260599 220.50263791 336.17578125 221.72412109 C337.24328613 221.99896332 338.31079102 222.27380554 339.41064453 222.55697632 C340.21743652 222.76891632 341.02422852 222.98085632 341.85546875 223.19921875 C341.85905128 224.13292455 341.85905128 224.13292455 341.86270618 225.08549309 C341.92214409 240.31357011 341.9978743 255.54147457 342.09118366 270.76937675 C342.13592687 278.13383416 342.17538933 285.49824551 342.2019043 292.86279297 C342.22506015 299.29046396 342.25864939 305.71798655 342.30417031 312.1455394 C342.32786877 315.54097548 342.34674889 318.93626675 342.35308266 322.33178329 C342.41940651 348.26649196 343.09237735 375.22372405 361.54296875 395.51171875 C373.39601483 406.69860526 388.01666239 407.78843529 403.4453125 407.515625 C417.6064646 406.92956174 430.24171509 400.53488432 439.85546875 390.19921875 C450.48989134 376.12675994 455.67845326 359.19726915 458.60546875 342.01171875 C458.72100098 341.33681396 458.8365332 340.66190918 458.95556641 339.96655273 C461.18396295 325.69839005 461.05383025 311.23147641 461.171875 296.83203125 C461.19249042 294.69969319 461.21348793 292.5673588 461.23484802 290.43502808 C461.28959562 284.8687032 461.3392101 279.30234439 461.38769531 273.73596191 C461.43825963 268.03748619 461.49376188 262.33905869 461.54882812 256.640625 C461.65582945 245.49353095 461.75739905 234.34639471 461.85546875 223.19921875 C463.57699357 222.70131471 465.30075367 222.21113599 467.02539062 221.72412109 C467.98505737 221.45030609 468.94472412 221.17649109 469.93347168 220.89437866 C474.42528034 219.82575154 478.75932199 219.76220178 483.35546875 219.82421875 C484.21527344 219.81261719 485.07507812 219.80101562 485.9609375 219.7890625 C493.03558396 219.82078737 497.63406514 221.22974504 504.85546875 223.19921875 C505.35046875 318.73421875 505.35046875 318.73421875 505.85546875 416.19921875 C513.77546875 410.91921875 521.69546875 405.63921875 529.85546875 400.19921875 C535.79546875 396.73421875 535.79546875 396.73421875 541.85546875 393.19921875 C550.35620333 396.59951258 555.58051366 402.12977903 559.85546875 410.19921875 C565.63906665 423.78977852 565.63906665 423.78977852 563.85546875 430.19921875 C561.22080662 433.08271533 558.03327156 434.97206739 554.72265625 437.0078125 C553.7792337 437.61883316 552.83581116 438.22985382 551.86380005 438.85939026 C548.83560983 440.81199625 545.78424548 442.72443499 542.73046875 444.63671875 C540.72751254 445.91864311 538.72618983 447.20312358 536.7265625 448.49023438 C532.98883437 450.89021563 529.24254278 453.27527164 525.48388672 455.64233398 C524.15979797 456.52856949 524.15979797 456.52856949 522.80895996 457.43270874 C520.50180375 458.8126399 518.58293985 459.72381014 516.10803223 460.65542603 C511.88450082 462.43360798 508.41792275 464.28866 505.85546875 468.19921875 C503.3893894 476.45379136 504.09547945 485.47904269 504.29988766 493.99499321 C504.36727454 497.44895174 504.35281707 500.90258362 504.34698486 504.35705566 C504.3478108 510.90734264 504.41794283 517.45488853 504.51490331 524.00438547 C504.6532168 533.56352059 504.68410782 543.12311022 504.71905899 552.68308258 C504.72445272 554.10728476 504.72990351 555.53148673 504.7354126 556.95568848 C504.73801346 557.65261763 504.74061432 558.34954679 504.743294 559.06759501 C504.76361104 563.80999184 504.81395891 568.55129021 504.87542725 573.29333496 C505.05453947 589.22051213 504.71078639 604.66622159 501.10546875 620.26171875 C500.9362793 620.99865967 500.76708984 621.73560059 500.59277344 622.49487305 C495.73190274 642.67439352 486.30383668 661.99982498 468.43359375 673.67578125 C448.00360817 685.74804546 422.02044026 687.92536641 399.09765625 682.234375 C379.86442019 676.093643 364.78332909 664.96171668 354.88525391 647.23974609 C341.88788191 621.4853518 342.96822126 589.16882251 351.67773438 562.23632812 C359.85950632 538.39837009 373.16884543 518.18458576 390.33984375 499.90234375 C392.39588366 497.69305863 394.35647147 495.44923492 396.29296875 493.13671875 C401.02706049 487.69419998 406.45761761 482.96503779 411.85546875 478.19921875 C412.35288574 477.75707031 412.85030273 477.31492187 413.36279297 476.859375 C420.00331441 470.98766434 426.92580092 465.54380052 434.04296875 460.26171875 C434.83815918 459.66480225 435.63334961 459.06788574 436.45263672 458.45288086 C440.53796473 455.43744166 444.61417722 452.7062633 449.07421875 450.2734375 C457.40867249 446.12107028 457.40867249 446.12107028 462.62451172 438.92578125 C463.38662486 433.56456368 462.80948671 428.49931853 461.85546875 423.19921875 C460.85580078 424.16021484 460.85580078 424.16021484 459.8359375 425.140625 C438.09122446 445.54720186 412.92220331 452.11881832 383.66796875 451.33105469 C361.21044839 450.27835842 341.93138494 441.99891644 325.85546875 426.19921875 C325.22898438 425.585625 324.6025 424.97203125 323.95703125 424.33984375 C314.65393588 414.48950748 309.4850584 401.7201544 304.85546875 389.19921875 C304.19546875 389.19921875 303.53546875 389.19921875 302.85546875 389.19921875 C301.35004352 390.87928019 301.35004352 390.87928019 299.79296875 393.07421875 C295.76642162 398.39560988 291.40249551 403.31890207 286.85546875 408.19921875 C286.23027344 408.87855469 285.60507812 409.55789063 284.9609375 410.2578125 C259.11181638 437.30415607 221.93317963 450.64559708 185.13671875 451.60180664 C157.69428658 451.8883332 134.31874951 444.82183129 114.04296875 425.94921875 C108.70353011 420.36980534 104.84757466 413.76551558 100.85546875 407.19921875 C100.19546875 406.20921875 99.53546875 405.21921875 98.85546875 404.19921875 C98.23542969 404.73289062 97.61539063 405.2665625 96.9765625 405.81640625 C58.74171152 437.98488349 10.26074581 455.10884215 -39.79101562 450.98095703 C-63.43460277 448.20824452 -85.38131285 435.87034791 -100.14453125 417.19921875 C-100.47453125 416.53921875 -100.80453125 415.87921875 -101.14453125 415.19921875 C-105.04178957 416.83084604 -107.90098794 419.49361066 -111.01953125 422.26171875 C-126.09379588 435.25419754 -143.67734756 444.73749993 -163.14453125 449.19921875 C-164.54638672 449.53566406 -164.54638672 449.53566406 -165.9765625 449.87890625 C-184.36053027 453.63283533 -206.70225684 452.52964233 -222.91796875 442.48046875 C-233.74758607 435.00358227 -240.68191692 426.09747558 -246.14453125 414.19921875 C-246.14453125 413.53921875 -246.14453125 412.87921875 -246.14453125 412.19921875 C-248.79072838 414.82118331 -251.40217045 417.46125396 -253.94921875 420.1796875 C-272.73041328 439.97101984 -295.97678102 450.76499566 -323.37109375 451.66943359 C-339.19545046 451.83937827 -354.91044933 449.35812466 -369.14453125 442.19921875 C-370.06234375 441.75835938 -370.98015625 441.3175 -371.92578125 440.86328125 C-386.46867428 433.46928227 -398.31892722 421.79235165 -407.14453125 408.19921875 C-407.68980469 408.87726563 -408.23507812 409.5553125 -408.796875 410.25390625 C-423.82949527 428.80698631 -438.66073541 442.61449615 -462.14453125 449.19921875 C-463.02238281 449.44671875 -463.90023437 449.69421875 -464.8046875 449.94921875 C-485.36109236 454.64037929 -507.30683948 451.16180814 -525.14453125 440.19921875 C-538.50815042 431.21902183 -545.80341066 415.32667407 -549.07421875 400.03125 C-552.01435077 384.97864971 -552.2891726 369.92962607 -552.34376144 354.64679909 C-552.35573301 351.58874608 -552.37522345 348.53082311 -552.3968811 345.4728241 C-552.45792753 336.78897454 -552.51257211 328.10514684 -552.54589844 319.42114258 C-552.5669257 314.08157488 -552.60227343 308.74226015 -552.64665604 303.40283775 C-552.6607294 301.38283968 -552.66951869 299.36279704 -552.67271042 297.34275246 C-552.20764005 278.5900348 -552.20764005 278.5900348 -560.14453125 262.19921875 C-572.26327737 255.04145694 -588.35806661 260.4722146 -601.26953125 263.13671875 C-604.93711021 263.88362829 -608.6062551 264.62209879 -612.27734375 265.3515625 C-613.14466125 265.52424652 -614.01197876 265.69693054 -614.90557861 265.87484741 C-621.31191427 267.1169487 -627.61506091 267.93706212 -634.14453125 268.19921875 C-634.1288208 269.24972412 -634.11311035 270.30022949 -634.09692383 271.38256836 C-633.51393837 314.25987105 -637.41628767 354.84934429 -658.14453125 393.19921875 C-658.72074219 394.27945312 -659.29695313 395.3596875 -659.890625 396.47265625 C-663.92099751 403.71429553 -668.75685707 409.92211828 -674.14453125 416.19921875 C-675.00022341 417.28134755 -675.85470353 418.36443801 -676.70703125 419.44921875 C-692.55662212 437.33080845 -716.43784256 449.21344648 -740.14453125 451.19921875 C-760.56770756 452.26973809 -780.23104008 450.3514109 -796.14453125 436.19921875 C-796.73621094 435.71195313 -797.32789062 435.2246875 -797.9375 434.72265625 C-804.22842306 429.10833132 -808.03004168 421.44855751 -812.14453125 414.19921875 C-812.70140625 414.82828125 -813.25828125 415.45734375 -813.83203125 416.10546875 C-816.25197092 418.81972541 -818.69537708 421.51131056 -821.14453125 424.19921875 C-821.77875 424.91335938 -822.41296875 425.6275 -823.06640625 426.36328125 C-838.16168524 442.55522581 -862.17581312 450.30669576 -883.81152344 451.32470703 C-911.83115587 452.25744488 -936.73804799 448.12498948 -957.98828125 428.453125 C-965.14293521 420.97443779 -970.51966939 412.41266903 -975.14453125 403.19921875 C-975.66660156 403.9984375 -976.18867188 404.79765625 -976.7265625 405.62109375 C-992.02714724 428.63732778 -1012.69773921 444.62162726 -1040.14453125 450.19921875 C-1061.76897335 453.96768878 -1085.02129724 450.67576862 -1103.39453125 438.2578125 C-1119.89730493 425.90417368 -1132.03297165 409.00067185 -1138.14453125 389.19921875 C-1140.90869954 391.83204427 -1143.10842554 394.45392288 -1145.20703125 397.63671875 C-1163.99055866 424.83078083 -1191.64821401 443.70762253 -1224.26953125 450.01171875 C-1244.40097 453.47486653 -1266.54473071 452.42022283 -1283.76953125 440.51171875 C-1292.80824065 433.61476278 -1302.34435858 423.86930362 -1304.14453125 412.19921875 C-1306.7327477 414.76868001 -1309.28891343 417.35124469 -1311.80078125 419.99609375 C-1325.46580627 434.29318025 -1341.82028059 444.37421765 -1361.14453125 449.19921875 C-1362.48451172 449.53759766 -1362.48451172 449.53759766 -1363.8515625 449.8828125 C-1389.56661265 455.2171219 -1415.96297106 449.76878111 -1438.14453125 436.19921875 C-1448.78886751 428.81559227 -1458.58172961 419.41413295 -1465.14453125 408.19921875 C-1465.78519531 408.97265625 -1466.42585938 409.74609375 -1467.0859375 410.54296875 C-1468.88621536 412.7142829 -1470.69484004 414.87834045 -1472.5078125 417.0390625 C-1473.98962478 418.80605966 -1475.44556698 420.58044007 -1476.875 422.390625 C-1490.54300454 439.2208928 -1510.86032339 448.78624973 -1532.14453125 451.19921875 C-1552.47575157 452.35866439 -1571.78377676 449.75454629 -1588.08203125 436.57421875 C-1606.06129291 418.86944963 -1609.97752099 392.96071197 -1610.26927662 368.80846596 C-1610.2930654 365.63309142 -1610.30614767 362.45779141 -1610.31319618 359.28233719 C-1610.3204959 356.67271679 -1610.33625591 354.06327038 -1610.35453796 351.45370483 C-1610.40639776 344.04370439 -1610.45493182 336.63381108 -1610.47045898 329.22363281 C-1610.48063201 324.66318067 -1610.51017319 320.10318824 -1610.55177879 315.54291916 C-1610.56394539 313.8248787 -1610.56923684 312.10677301 -1610.56698036 310.38869095 C-1610.55201814 295.2872762 -1611.68067791 278.78787016 -1622.921875 267.3984375 C-1632.39756242 259.5892309 -1643.26804526 258.11290056 -1655.13330078 258.97607422 C-1668.71167801 260.48258512 -1680.43383431 268.86598241 -1688.80859375 279.265625 C-1700.93901567 295.63338608 -1707.47019298 314.01321436 -1711.89453125 333.69921875 C-1712.09336914 334.57529785 -1712.29220703 335.45137695 -1712.49707031 336.35400391 C-1715.73998651 351.67024704 -1716.45303822 367.07542415 -1716.55859375 382.67578125 C-1716.57736876 384.46610339 -1716.59694649 386.25641728 -1716.61727905 388.04672241 C-1716.66793903 392.69233255 -1716.70791217 397.33797119 -1716.74542236 401.98370361 C-1716.78588416 406.75092221 -1716.8367808 411.51802917 -1716.88671875 416.28515625 C-1716.98269153 425.58976458 -1717.06733987 434.89443694 -1717.14453125 444.19921875 C-1718.56261534 444.68835007 -1719.9821805 445.17318863 -1721.40234375 445.65625 C-1722.58787842 446.06194214 -1722.58787842 446.06194214 -1723.79736328 446.47583008 C-1727.21737329 447.52986478 -1730.59013175 447.98478514 -1734.14453125 448.19921875 C-1735.34142578 448.27849609 -1735.34142578 448.27849609 -1736.5625 448.359375 C-1742.22566534 448.55177205 -1747.48507727 447.85496543 -1753.015625 446.68359375 C-1753.70426636 446.54163574 -1754.39290771 446.39967773 -1755.10241699 446.25341797 C-1756.78398276 445.90616187 -1758.46438334 445.55327137 -1760.14453125 445.19921875 C-1760.1478414 444.41421714 -1760.15115154 443.62921553 -1760.154562 442.82042599 C-1760.23600989 423.6628651 -1760.32817245 404.50538266 -1760.43205833 385.34792995 C-1760.48204341 376.08328822 -1760.52848716 366.81865471 -1760.56640625 357.55395508 C-1760.59949042 349.47280798 -1760.63941051 341.3917275 -1760.68732131 333.31065422 C-1760.71242417 329.03728537 -1760.73425195 324.76395979 -1760.74787521 320.49053764 C-1760.76084446 316.45629999 -1760.78305354 312.42221197 -1760.81191444 308.38805771 C-1760.82087558 306.918885 -1760.82665308 305.44968828 -1760.82874489 303.98048973 C-1760.34753028 282.49457696 -1760.34753028 282.49457696 -1768.6328125 263.515625 C-1773.26486219 259.4582713 -1777.46391395 258.76311654 -1783.40234375 258.875 C-1793.52955424 260.07237674 -1800.87700445 267.72656171 -1807.14453125 275.19921875 C-1811.93006179 281.55361788 -1816.19711678 288.27629871 -1820.51953125 294.94921875 C-1822.246189 297.58683231 -1823.97649439 300.22202528 -1825.70718384 302.85699463 C-1826.7733872 304.4832553 -1827.83656417 306.11150591 -1828.89608765 307.74212646 C-1831.8706571 312.31316665 -1834.94256864 316.78418101 -1838.14453125 321.19921875 C-1850.05448771 320.16357036 -1860.13885962 314.35888196 -1868.4296875 305.85546875 C-1873.21542956 300.14683011 -1873.21542956 300.14683011 -1872.97900391 296.98681641 C-1871.89133199 293.35339396 -1869.97068787 290.51071183 -1867.83984375 287.421875 C-1867.40123016 286.77407578 -1866.96261658 286.12627655 -1866.51071167 285.45884705 C-1865.57810882 284.08537984 -1864.64149376 282.71462961 -1863.70117188 281.34643555 C-1862.29988915 279.30592511 -1860.91262511 277.25647455 -1859.52734375 275.20507812 C-1842.95008081 250.80436059 -1823.31797692 223.48013939 -1792.40478516 217.51269531 C-1775.32044554 215.14325353 -1759.09537967 216.39072753 -1744.640625 226.29296875 C-1733.34465713 234.9196234 -1727.11934606 246.06295661 -1722.14453125 259.19921875 C-1719.4917143 256.63827425 -1717.20003128 254.04364341 -1715.01953125 251.07421875 C-1701.96532951 234.23899029 -1682.69585629 221.53552565 -1661.49609375 217.63671875 C-1638.92857132 214.92015463 -1615.03175681 216.12934044 -1596.33203125 230.3359375 C-1593.81950825 232.53056506 -1591.47221314 234.81049625 -1589.14453125 237.19921875 C-1588.4484375 237.86308594 -1587.75234375 238.52695313 -1587.03515625 239.2109375 C-1561.90805909 264.77629798 -1565.70321604 306.36325116 -1565.63922119 339.23968506 C-1565.62757812 344.60137898 -1565.60373232 349.96276596 -1565.56452942 355.32433128 C-1565.55122691 357.7923174 -1565.55507606 360.25985345 -1565.55993652 362.7278595 C-1565.51187269 376.58611616 -1565.09451131 391.96897921 -1555.76953125 403.01171875 C-1550.0090281 407.81213805 -1544.1295047 409.60161171 -1536.76171875 409.46875 C-1523.71071528 408.12469143 -1512.41142067 400.07096706 -1504.14453125 390.19921875 C-1496.44011459 380.3184132 -1490.66469849 369.41126673 -1485.14453125 358.19921875 C-1484.72042969 357.39742187 -1484.29632812 356.595625 -1483.859375 355.76953125 C-1482.69337959 351.57704501 -1483.03259701 347.39749204 -1483.14453125 343.07421875 C-1483.5259436 310.13381329 -1475.69299043 278.86315619 -1454.14453125 253.19921875 C-1453.50257813 252.41160156 -1452.860625 251.62398437 -1452.19921875 250.8125 C-1436.33324657 232.16559174 -1414.35829973 220.4681924 -1390.14453125 217.19921875 C-1364.42145299 215.4316747 -1340.18374929 218.79426412 -1320.14453125 236.19921875 C-1319.15453125 236.85921875 -1318.16453125 237.51921875 -1317.14453125 238.19921875 C-1317.14453125 232.58921875 -1317.14453125 226.97921875 -1317.14453125 221.19921875 C-1309.65147788 218.2019974 -1303.37305934 218.01656009 -1295.39453125 218.01171875 C-1294.3478125 217.99947266 -1293.30109375 217.98722656 -1292.22265625 217.97460938 C-1291.19140625 217.97267578 -1290.16015625 217.97074219 -1289.09765625 217.96875 C-1287.70788574 217.96258667 -1287.70788574 217.96258667 -1286.29003906 217.95629883 C-1283.54647638 218.1681775 -1281.12037613 218.60282405 -1278.44793701 219.21440125 C-1277.6410078 219.39783427 -1276.8340786 219.5812673 -1276.00269699 219.7702589 C-1275.3895023 219.91181565 -1274.7763076 220.0533724 -1274.14453125 220.19921875 C-1274.1412211 220.90838094 -1274.13791096 221.61754313 -1274.1345005 222.34819508 C-1274.05290624 239.68791169 -1273.9606984 257.02754032 -1273.85700417 274.36713886 C-1273.80710621 282.75279776 -1273.7606629 291.13844799 -1273.72265625 299.52416992 C-1273.68947994 306.84212765 -1273.64951226 314.16001316 -1273.60174119 321.47789067 C-1273.57672786 325.34449739 -1273.55487593 329.21105778 -1273.54118729 333.07772255 C-1275.167078 369.83256865 -1275.167078 369.83256865 -1261.14453125 402.19921875 C-1254.7747973 407.57781152 -1247.13964307 409.7496351 -1238.875 409.5078125 C-1222.48083227 407.65496665 -1208.56001155 401.01778039 -1196.14453125 390.19921875 C-1195.55671875 389.75449219 -1194.96890625 389.30976562 -1194.36328125 388.8515625 C-1168.11990007 368.61197371 -1158.14546449 329.92693051 -1154.04370117 298.85400391 C-1151.87779575 280.86463583 -1151.86818931 262.72774829 -1151.58203125 244.63671875 C-1151.53873576 242.06444765 -1151.49511839 239.49218194 -1151.45117188 236.91992188 C-1151.34465678 230.67974497 -1151.24473413 224.43951281 -1151.14453125 218.19921875 C-1162.69453125 218.19921875 -1174.24453125 218.19921875 -1186.14453125 218.19921875 C-1188.32096556 210.94443773 -1189.62753915 205.93574775 -1189.51953125 198.69921875 C-1189.53113281 197.92191406 -1189.54273437 197.14460937 -1189.5546875 196.34375 C-1189.52229817 189.8119025 -1188.14603376 185.8708938 -1186.14453125 179.19921875 C-1174.59453125 179.19921875 -1163.04453125 179.19921875 -1151.14453125 179.19921875 C-1151.14453125 151.80921875 -1151.14453125 124.41921875 -1151.14453125 96.19921875 C-1120.5990767 90.47194602 -1120.5990767 90.47194602 -1107.14453125 97.19921875 C-1107.14453125 124.25921875 -1107.14453125 151.31921875 -1107.14453125 179.19921875 C-1084.37453125 179.19921875 -1061.60453125 179.19921875 -1038.14453125 179.19921875 C-1032.85166632 191.54923692 -1032.28927666 204.46989844 -1037.14453125 217.19921875 C-1038.14453125 218.19921875 -1038.14453125 218.19921875 -1040.8842926 218.31947327 C-1042.10784958 218.31725266 -1043.33140656 218.31503204 -1044.59204102 218.31274414 C-1045.60175461 218.31296318 -1045.60175461 218.31296318 -1046.63186646 218.31318665 C-1048.86658909 218.31248753 -1051.10122935 218.30469527 -1053.3359375 218.296875 C-1054.88150487 218.29501081 -1056.42707282 218.29358691 -1057.97264099 218.29258728 C-1062.04810202 218.28876215 -1066.12352762 218.27893192 -1070.19897461 218.2678833 C-1074.35465007 218.25766907 -1078.51033124 218.25308964 -1082.66601562 218.24804688 C-1090.82553712 218.23730964 -1098.98502978 218.22023329 -1107.14453125 218.19921875 C-1107.08358815 233.09155477 -1107.00580797 247.98373529 -1106.90881634 262.87588024 C-1106.86414434 269.79297026 -1106.82466687 276.71001206 -1106.7980957 283.62719727 C-1106.77237581 290.31875765 -1106.73128446 297.01007122 -1106.68134499 303.70150185 C-1106.66482556 306.23796159 -1106.65321942 308.77445887 -1106.64691734 311.31096458 C-1106.56842993 340.03167339 -1105.10779725 373.33398741 -1085.203125 396.1875 C-1077.09514828 404.11085486 -1066.02511367 409.14146008 -1054.64453125 409.51171875 C-1040.54763703 409.30225524 -1028.40750466 401.89876549 -1018.33203125 392.54296875 C-996.89226983 369.5717958 -989.15709856 334.55070203 -988.93920898 303.91577148 C-988.92435959 302.5970681 -988.92435959 302.5970681 -988.90921021 301.25172424 C-988.8779099 298.37877998 -988.8529638 295.50581925 -988.828125 292.6328125 C-988.80752821 290.62784931 -988.78653107 288.62289019 -988.76515198 286.61793518 C-988.71021254 281.36554282 -988.66068034 276.11311311 -988.61230469 270.86065674 C-988.56188303 265.49105545 -988.50630531 260.12150774 -988.45117188 254.75195312 C-988.34393485 244.23442088 -988.24241475 233.71684192 -988.14453125 223.19921875 C-986.25268119 222.70223972 -984.35910675 222.21182233 -982.46484375 221.72412109 C-981.41055176 221.45030609 -980.35625977 221.17649109 -979.27001953 220.89437866 C-974.85533446 219.91248022 -970.64920275 219.75882836 -966.14453125 219.82421875 C-965.3453125 219.81261719 -964.54609375 219.80101562 -963.72265625 219.7890625 C-958.8683856 219.81225169 -954.52739401 220.50263791 -949.82421875 221.72412109 C-948.75671387 221.99896332 -947.68920898 222.27380554 -946.58935547 222.55697632 C-945.78256348 222.76891632 -944.97577148 222.98085632 -944.14453125 223.19921875 C-944.1421429 223.81377017 -944.13975454 224.42832159 -944.13729382 225.06149578 C-944.07778307 240.11537652 -944.00200873 255.16908387 -943.90881634 270.22278881 C-943.86412613 277.50308458 -943.82465244 284.78333433 -943.7980957 292.0637207 C-943.77489588 298.42000532 -943.74126058 304.77614097 -943.69582969 311.13230687 C-943.67218835 314.48819445 -943.65483129 317.84380646 -943.64691734 321.19978905 C-943.77743387 361.18648042 -943.77743387 361.18648042 -926.01953125 395.94921875 C-916.24077004 405.12087284 -903.79515284 407.58575692 -890.89453125 407.51171875 C-889.87254639 407.5060791 -888.85056152 407.50043945 -887.79760742 407.49462891 C-872.15140248 407.24273336 -858.82634976 402.59815543 -847.390625 391.6015625 C-837.62641266 381.15810061 -832.77443901 368.68934849 -829.39453125 355.01171875 C-829.19585449 354.22434326 -828.99717773 353.43696777 -828.79248047 352.62573242 C-824.88758643 335.70285187 -824.82241946 318.30054244 -824.73046875 301.03125 C-824.71170724 298.77153354 -824.69213036 296.51182371 -824.67178345 294.25212097 C-824.62098168 288.37187661 -824.58108176 282.49160966 -824.54364014 276.61126709 C-824.50327025 270.58388931 -824.45233036 264.55660122 -824.40234375 258.52929688 C-824.30620168 246.75266765 -824.22160428 234.97598716 -824.14453125 223.19921875 C-822.42300643 222.70131471 -820.69924633 222.21113599 -818.97460938 221.72412109 C-818.01494263 221.45030609 -817.05527588 221.17649109 -816.06652832 220.89437866 C-811.57471966 219.82575154 -807.24067801 219.76220178 -802.64453125 219.82421875 C-801.78472656 219.81261719 -800.92492188 219.80101562 -800.0390625 219.7890625 C-795.2111909 219.81071215 -790.96533924 220.39711628 -786.31445312 221.72412109 C-785.34117065 221.99896332 -784.36788818 222.27380554 -783.3651123 222.55697632 C-782.63232056 222.76891632 -781.89952881 222.98085632 -781.14453125 223.19921875 C-781.1412211 223.91630005 -781.13791096 224.63338135 -781.1345005 225.37219238 C-781.05299153 242.88610584 -780.96080993 260.39993131 -780.85700417 277.91372681 C-780.80705551 286.38354723 -780.76061186 294.85335883 -780.72265625 303.32324219 C-780.68953364 310.71258669 -780.64959352 318.10185889 -780.60174119 325.4911232 C-780.57667578 329.39731732 -780.55483778 333.30346473 -780.54118729 337.2097168 C-780.52818297 340.90005896 -780.50593939 344.59023922 -780.47714806 348.28049088 C-780.4640119 350.25262545 -780.46018669 352.2248155 -780.45683289 354.19699097 C-780.30693976 370.53513901 -779.55239917 389.37193869 -768.14453125 402.19921875 C-761.32879657 407.96855433 -753.55289773 409.65505669 -744.7890625 409.453125 C-729.9046308 408.02404367 -717.34602965 399.94582153 -707.921875 388.5703125 C-682.43661716 354.57129819 -672.52320149 307.03239524 -678.01953125 265.19921875 C-679.07860602 258.34044882 -681.30870832 253.81573839 -685.26953125 248.13671875 C-689.16286422 242.32176319 -692.00705867 236.3241904 -694.58203125 229.82421875 C-695.07630615 228.57692993 -695.07630615 228.57692993 -695.58056641 227.30444336 C-702.01159356 210.51492888 -702.01159356 210.51492888 -700.14453125 202.19921875 C-695.10189181 193.85890015 -685.10569789 189.85764588 -676.09765625 187.3515625 C-673.09504294 186.75183418 -670.19828588 186.41399689 -667.14453125 186.19921875 C-666.01273438 186.09738281 -664.8809375 185.99554687 -663.71484375 185.890625 C-660.15158747 185.82194546 -657.50286288 185.9968531 -654.14453125 187.19921875 C-650.91186311 190.71807884 -649.64657545 194.71619452 -648.14453125 199.19921875 C-647.60877269 200.67130302 -647.07091438 202.14262435 -646.53125 203.61328125 C-643.63713079 211.74803364 -641.53518878 219.66301215 -640.14453125 228.19921875 C-623.32539583 225.932796 -606.80529954 223.03853577 -590.22265625 219.46875 C-571.80299883 215.57403261 -550.34959114 213.76201794 -533.89453125 224.32421875 C-518.20385106 236.35289254 -511.42756767 252.76221605 -508.60897827 271.82041931 C-508.0347653 276.56619932 -507.99245527 281.27352641 -507.98681641 286.04907227 C-507.97919533 287.47771858 -507.97919533 287.47771858 -507.97142029 288.93522644 C-507.96076889 290.99219933 -507.95212848 293.04918343 -507.94530106 295.10617256 C-507.93342389 298.37487263 -507.91394738 301.64344573 -507.8921814 304.91209412 C-507.83087257 314.2021759 -507.77667006 323.49224359 -507.74316406 332.7824707 C-507.72207651 338.47822612 -507.68666233 344.17374719 -507.64240646 349.8693676 C-507.62835819 352.02561603 -507.61954964 354.18190589 -507.61635208 356.33819771 C-507.9659135 381.19530841 -507.9659135 381.19530841 -497.546875 403.0703125 C-492.36065541 407.99663043 -487.21065425 408.95195077 -480.26953125 409.51171875 C-467.59757238 409.06708861 -456.83807615 401.79279494 -448.3828125 392.796875 C-434.04487022 376.15685473 -423.49386506 358.00791421 -425.04003906 335.64648438 C-425.90755857 315.32869111 -420.12120047 294.23288533 -411.14453125 276.19921875 C-410.66113281 275.20664063 -410.17773438 274.2140625 -409.6796875 273.19140625 C-396.38688467 247.34224397 -374.29256202 229.12654386 -346.97265625 220.20703125 C-320.93598907 213.35248009 -294.5437319 215.87894578 -271.14453125 229.19921875 C-267.28696594 231.63666852 -263.73023015 234.37106187 -260.14453125 237.19921875 C-259.81453125 231.91921875 -259.48453125 226.63921875 -259.14453125 221.19921875 C-251.65147788 218.2019974 -245.37305934 218.01656009 -237.39453125 218.01171875 C-236.3478125 217.99947266 -235.30109375 217.98722656 -234.22265625 217.97460938 C-227.87778958 217.96271275 -222.26828107 218.50447729 -216.14453125 220.19921875 C-214.36139488 221.98235512 -215.01596816 224.60977459 -215.01322937 227.02027893 C-215.00922119 228.28589661 -215.00521301 229.55151428 -215.00108337 230.85548401 C-215.00155856 232.27157595 -215.00209469 233.68766787 -215.00268555 235.10375977 C-214.99965541 236.58531803 -214.99613436 238.06687537 -214.99215698 239.5484314 C-214.98424995 242.74924893 -214.97911601 245.95005523 -214.97586632 249.15088081 C-214.96995759 254.22553539 -214.95341352 259.30011973 -214.93452454 264.3747406 C-214.92818609 266.11312575 -214.92186048 267.85151096 -214.91554737 269.5898962 C-214.91238156 270.46090367 -214.90921575 271.33191114 -214.905954 272.22931278 C-214.86393917 284.04568447 -214.83096799 295.86202552 -214.81860352 307.6784668 C-214.81018364 315.64320755 -214.78753971 323.60777632 -214.74924785 331.57243103 C-214.72960053 335.78273223 -214.71704411 339.992777 -214.72208214 344.20312691 C-214.7267799 348.17840066 -214.71264854 352.15319174 -214.68507004 356.12836838 C-214.67824041 357.57454658 -214.67794102 359.02077561 -214.68527031 360.46695137 C-214.75202202 375.13998631 -212.14891787 388.26888703 -204.51953125 400.88671875 C-198.6511432 406.60067553 -191.26401785 408.86700209 -183.26953125 409.51171875 C-162.6123993 409.16857702 -144.98329217 395.98359994 -130.55078125 382.44140625 C-128.91155334 380.91394388 -127.22035177 379.44084794 -125.48828125 378.01953125 C-120.94812115 374.20745698 -120.94812115 374.20745698 -118.703125 368.92578125 C-118.93405486 365.9378316 -119.51150108 363.12953583 -120.14453125 360.19921875 C-120.63094301 357.34655685 -121.09159524 354.49814592 -121.51953125 351.63671875 C-121.64859863 350.78182861 -121.77766602 349.92693848 -121.91064453 349.04614258 C-123.33387947 338.95076549 -124.04179993 328.8008063 -124.76953125 318.63671875 C-124.83178894 317.78794159 -124.89404663 316.93916443 -124.95819092 316.06466675 C-126.82889575 290.29109774 -127.3071034 264.5025127 -127.31178832 238.66986465 C-127.31251341 236.40737935 -127.31467407 234.14489965 -127.31728554 231.88241577 C-127.32645549 223.91102733 -127.33063102 215.93965527 -127.32983398 207.96826172 C-127.32930135 201.46986421 -127.33637201 194.97152678 -127.3503418 188.47314453 C-127.66641042 38.06893478 -127.66641042 38.06893478 -94.70703125 2.57421875 C-93.86140625 1.79046875 -93.01578125 1.00671875 -92.14453125 0.19921875 C-91.60699219 -0.34347656 -91.06945313 -0.88617187 -90.515625 -1.4453125 C-65.88785794 -25.04478031 -24.35242423 -20.44893911 0 0 Z M-64.89453125 33.5859375 C-86.25867569 58.39950109 -83.86564989 104.11500959 -84.69140625 134.77734375 C-84.71265438 135.5557279 -84.73390251 136.33411205 -84.75579453 137.1360836 C-85.29845794 157.57297834 -85.3008145 178.01076348 -85.27330399 198.45350266 C-85.26947511 201.55722849 -85.26744878 204.66095123 -85.26583862 207.76467896 C-85.25156597 231.05739618 -85.22357195 254.34871846 -84.70703125 277.63671875 C-84.68747375 278.52332184 -84.66791626 279.40992493 -84.64776611 280.32339478 C-84.51736868 285.95011768 -84.34754009 291.57466372 -84.14453125 297.19921875 C-84.10930359 298.1767511 -84.07407593 299.15428345 -84.03778076 300.16143799 C-83.92165349 303.29017581 -83.79819569 306.4185332 -83.671875 309.546875 C-83.61623131 311.00413246 -83.61623131 311.00413246 -83.5594635 312.49082947 C-83.36163452 317.13790954 -83.05978745 321.62485153 -82.14453125 326.19921875 C-77.88962076 321.43290075 -75.12776219 315.92612286 -72.14453125 310.32421875 C-71.57492676 309.26066162 -71.00532227 308.19710449 -70.41845703 307.10131836 C-69.23490873 304.88686906 -68.05410824 302.67094908 -66.87597656 300.45361328 C-65.2644327 297.42458343 -63.63926942 294.40326061 -62.01171875 291.3828125 C-25.84316079 223.77123681 5.29347904 131.19735478 -16.57373047 54.07861328 C-19.90312398 43.11639292 -25.19471698 32.54040017 -35.14453125 26.19921875 C-46.55049479 21.74811103 -56.50909496 25.37083039 -64.89453125 33.5859375 Z M143.6640625 32.19921875 C134.55563789 42.2716019 131.06719992 54.41596486 128.16796875 67.38671875 C127.96550537 68.28148926 127.76304199 69.17625977 127.55444336 70.09814453 C124.31851213 85.39699071 123.42581197 101.10040463 122.7421875 116.6875 C122.70019415 117.62287409 122.6582008 118.55824818 122.61493492 119.52196693 C121.4228 146.9532379 121.58884324 174.41230537 121.65487182 201.86306965 C121.6665496 206.95437498 121.67061192 212.04564488 121.67016602 217.13696289 C121.31525419 268.7155272 121.31525419 268.7155272 123.85546875 320.19921875 C126.55297681 316.87410541 128.9196476 313.60731229 131.0703125 309.90234375 C131.667229 308.8747998 132.26414551 307.84725586 132.87915039 306.78857422 C133.51071045 305.68658691 134.14227051 304.58459961 134.79296875 303.44921875 C135.12183075 302.87576721 135.45069275 302.30231567 135.78952026 301.71148682 C176.44133483 230.69542561 212.90126931 137.91838762 190.42626953 55.17578125 C187.15725381 43.85587053 182.82407483 34.040419 172.85546875 27.19921875 C162.12323479 22.55420301 152.19198455 23.96299625 143.6640625 32.19921875 Z M-1417.55078125 278.6953125 C-1432.45404009 295.86978716 -1438.56700011 316.96775797 -1438.45703125 339.44921875 C-1438.4521167 340.63854004 -1438.44720215 341.82786133 -1438.44213867 343.05322266 C-1438.18467877 362.39044207 -1433.33720656 381.48968318 -1419.83203125 396.01171875 C-1408.4050053 406.64979636 -1394.01938019 410.59884457 -1378.734375 410.40625 C-1361.79254201 409.42919108 -1347.97147942 403.34581417 -1336.14453125 391.19921875 C-1335.52191406 390.60882812 -1334.89929687 390.0184375 -1334.2578125 389.41015625 C-1325.49570682 380.47083944 -1320.23726956 367.3578554 -1318.14453125 355.19921875 C-1317.89630615 353.81730347 -1317.89630615 353.81730347 -1317.64306641 352.4074707 C-1316.31030094 342.91007987 -1316.65034576 333.13107208 -1316.54427814 323.55169296 C-1316.50332622 319.88681404 -1316.44293029 316.22461136 -1316.33520508 312.56103516 C-1316.23071086 308.99296508 -1316.17676539 305.42727559 -1316.1568203 301.8577652 C-1316.13343343 299.86159307 -1316.06034415 297.86619805 -1315.98591614 295.87127686 C-1316.00022238 288.70836343 -1317.01509122 284.24016632 -1321.98168945 278.96533203 C-1334.90697608 266.35224466 -1352.14751829 257.75682036 -1370.39453125 257.88671875 C-1371.64568726 257.89517822 -1371.64568726 257.89517822 -1372.92211914 257.90380859 C-1390.73983333 258.25206 -1405.27304855 265.95915796 -1417.55078125 278.6953125 Z M-361.4609375 280.79296875 C-378.28220198 302.65073708 -382.31893695 328.6581074 -379.92626953 355.66259766 C-377.83306104 371.62469195 -370.97275246 388.88481059 -358.14453125 399.19921875 C-344.5394796 408.86043896 -329.89650828 411.67320125 -313.4609375 409.7734375 C-297.36286377 407.04296298 -283.10818344 399.30808273 -273.12890625 386.1953125 C-266.81984449 376.66962279 -262.0916003 366.511529 -260.14453125 355.19921875 C-259.97832275 354.27866699 -259.81211426 353.35811523 -259.64086914 352.40966797 C-258.30589822 342.89781666 -258.68903048 333.09405563 -258.59609032 323.49988079 C-258.56032851 319.82737364 -258.50694516 316.15705721 -258.41064453 312.4855957 C-258.31722913 308.91109862 -258.26908419 305.33853635 -258.25169754 301.76288795 C-258.23098372 299.76071398 -258.16566084 297.75915858 -258.09921265 295.75798035 C-258.11338956 288.86982256 -258.7469266 284.81533367 -263.38134766 279.55395508 C-276.85184021 266.41703929 -293.45154011 257.74997454 -312.45703125 257.88671875 C-313.70141968 257.89517822 -313.70141968 257.89517822 -314.97094727 257.90380859 C-333.71781355 258.27221671 -349.15011671 267.0081711 -361.4609375 280.79296875 Z M447.85546875 503.19921875 C447.04142578 503.84793945 447.04142578 503.84793945 446.2109375 504.50976562 C419.82398839 525.65272611 393.7538668 554.08264993 389.1015625 589.046875 C387.91107187 604.29649301 388.04360153 619.56171177 397.85546875 632.19921875 C403.80742703 638.85517209 410.56478189 642.64560858 419.4765625 643.578125 C430.04919757 643.90818712 437.51173193 642.25277918 445.66796875 635.44921875 C460.30090485 621.38205522 462.45484266 599.21978157 462.90968704 579.89575958 C462.99300478 573.64549981 462.97048628 567.39515981 462.953125 561.14453125 C462.95125565 559.14671871 462.94983419 557.1489057 462.94883728 555.15109253 C462.94505281 549.93982639 462.93525818 544.72858894 462.9241333 539.51733398 C462.91383078 534.18083077 462.90932088 528.84432283 462.90429688 523.5078125 C462.89363151 513.07160211 462.87660513 502.63541283 462.85546875 492.19921875 C458.68901235 492.19921875 451.13669727 500.5640878 447.85546875 503.19921875 Z " fill="#DC027B" transform="translate(4293.14453125,805.80078125)"/>
<path d="M0 0 C1.06347656 0.18191895 2.12695312 0.36383789 3.22265625 0.55126953 C57.73294008 10.28897828 106.49570547 39.23384368 138.546875 84.578125 C149.49092469 100.37632203 157.87107721 117.18331817 165 135 C165.70576172 136.74603516 165.70576172 136.74603516 166.42578125 138.52734375 C175.38809889 162.14465636 179.97819158 187.16893047 183.1875 212.125 C183.35467529 213.41035645 183.52185059 214.69571289 183.6940918 216.02001953 C186.03440606 235.09701706 186.27226917 254.23585286 186.3125 273.4375 C186.31511841 274.64255188 186.31773682 275.84760376 186.32043457 277.08917236 C186.32520199 297.67998407 185.03520939 317.64969453 182 338 C181.68388053 340.29933981 181.3687273 342.59881273 181.0546875 344.8984375 C173.70095498 396.49913868 152.7324133 446.83466498 118 486 C117.26861816 486.82612793 117.26861816 486.82612793 116.52246094 487.66894531 C79.15408997 529.61402882 27.96479252 552.08500216 -27 560 C-28.331521 560.19698486 -28.331521 560.19698486 -29.68994141 560.39794922 C-95.96303737 569.67956725 -169.89002354 557.65801475 -224 517 C-224.95003906 516.29617188 -225.90007812 515.59234375 -226.87890625 514.8671875 C-240.92148831 503.93326864 -253.76173972 490.55454548 -264 476 C-264.43828125 475.37899414 -264.8765625 474.75798828 -265.328125 474.11816406 C-286.38891356 443.84328051 -299.54290942 408.97633588 -307 373 C-307.22977539 371.94949463 -307.45955078 370.89898926 -307.69628906 369.81665039 C-309.80281032 359.86366866 -311.06521438 349.9248855 -312.125 339.8125 C-312.29498904 338.24798332 -312.4655602 336.68352979 -312.63671875 335.11914062 C-313.10967428 330.7477406 -313.57860864 326.37671603 -314 322 C-314.08882446 321.08663376 -314.17764893 320.17326752 -314.26916504 319.23222351 C-314.92394718 312.03391229 -315.1733578 304.89408465 -315.203125 297.66796875 C-315.21004868 296.52509903 -315.21697235 295.38222931 -315.22410583 294.20472717 C-315.24130497 290.53228283 -315.24769414 286.85998273 -315.25 283.1875 C-315.25133942 281.9348938 -315.25267883 280.6822876 -315.25405884 279.39172363 C-315.24964695 260.38531625 -314.60651091 241.83824733 -312 223 C-311.78005173 221.23061729 -311.56122732 219.46109436 -311.34375 217.69140625 C-310.7049153 212.76616549 -309.89388122 207.88493522 -309 203 C-308.81630859 201.98502441 -308.63261719 200.97004883 -308.44335938 199.92431641 C-300.92789023 159.47797017 -286.16913808 119.86089505 -261 87 C-260.31292969 86.10152344 -259.62585938 85.20304687 -258.91796875 84.27734375 C-245.10596023 66.65136839 -229.29928087 50.90914615 -211 38 C-210.42636719 37.59233398 -209.85273438 37.18466797 -209.26171875 36.76464844 C-186.20799847 20.60228488 -159.36150509 9.3682667 -132 3 C-131.23284668 2.82130371 -130.46569336 2.64260742 -129.67529297 2.45849609 C-87.85941407 -6.967319 -42.18479106 -7.26767989 0 0 Z " fill="#E0027A" transform="translate(642,996)"/>
<path d="M0 0 C0.73734375 0.67289062 1.4746875 1.34578125 2.234375 2.0390625 C28.88029289 27.26764433 41.92683346 64.6945756 43.20703125 100.7355957 C43.32599669 105.59481121 43.33453428 110.45211568 43.3125 115.3125 C43.31034485 116.17651428 43.3081897 117.04052856 43.30596924 117.9307251 C43.0777235 175.42094378 28.26137664 227.73862336 -13 269 C-13.66 269.69480469 -14.32 270.38960937 -15 271.10546875 C-52.89505353 310.55481158 -112.59852989 328.0900665 -165.98230362 329.2061739 C-175.90733979 329.35186807 -185.83308162 329.28581635 -195.75842285 329.20599365 C-200.09085495 329.17462322 -204.42334509 329.16146133 -208.75585938 329.14648438 C-217.17072443 329.11485332 -225.58531932 329.06405016 -234 329 C-233.97938507 329.73975067 -233.95877014 330.47950134 -233.93753052 331.2416687 C-233.66289282 341.11934301 -233.39253558 350.9971309 -233.125 360.875 C-233.10295753 361.68875217 -233.08091507 362.50250435 -233.05820465 363.34091568 C-232.24403743 393.45456968 -231.53572224 423.57011262 -230.875 453.6875 C-230.8416946 455.20550327 -230.8416946 455.20550327 -230.80771637 456.75417328 C-230.53558638 469.16938664 -230.2663334 481.58466098 -230 494 C-230.57897537 494.00586624 -231.15795074 494.01173248 -231.75447083 494.01777649 C-270.00462069 494.12954844 -270.00462069 494.12954844 -308 498 C-309.03979004 498.16435547 -310.07958008 498.32871094 -311.15087891 498.49804688 C-318.69064503 499.71284427 -326.21989761 500.99616984 -333.69482422 502.56591797 C-335.00410889 502.84072998 -335.00410889 502.84072998 -336.33984375 503.12109375 C-337.11577881 503.28923584 -337.89171387 503.45737793 -338.69116211 503.63061523 C-341.16368975 504.02618828 -343.49999739 504.02450078 -346 504 C-346.16902107 490.64009137 -345.70734372 477.34708045 -345.07414055 464.00318336 C-344.77960891 457.7752896 -344.50146707 451.54665311 -344.22094727 445.31811523 C-344.16198052 444.01553866 -344.10301378 442.71296209 -344.04226017 441.37091351 C-341.97310903 395.58516175 -340.13025875 349.88329425 -340.87259674 304.04042912 C-340.98834996 296.88321663 -341.08851514 289.72584169 -341.18603516 282.56835938 C-341.65861659 248.13926912 -342.22260145 213.7120991 -342.82154191 179.28501344 C-342.97464572 170.48301107 -343.12524335 161.68096781 -343.27490234 152.87890625 C-343.51368637 138.84571494 -343.7553478 124.81257551 -343.99991608 110.7794838 C-344.04122322 108.4086736 -344.08245904 106.03786216 -344.12361908 103.66704941 C-344.25859266 95.89648239 -344.39594463 88.12596094 -344.53515625 80.35546875 C-344.55387535 79.29979895 -344.57259445 78.24412914 -344.5918808 77.15646935 C-344.77972463 66.62466428 -344.98377537 56.09429159 -345.28076172 45.56494141 C-346.12197974 15.3742514 -346.10382944 -14.79999538 -346 -45 C-319.62622421 -45.13077376 -293.25244663 -45.26117977 -266.87866688 -45.39115143 C-254.63208239 -45.45151189 -242.38549851 -45.51199139 -230.13891602 -45.57275391 C-219.46123628 -45.62573187 -208.78355546 -45.67848364 -198.10587329 -45.73096704 C-192.45540103 -45.7587483 -186.80492937 -45.78664062 -181.154459 -45.81480408 C-175.82840545 -45.84134697 -170.50235049 -45.86758581 -165.17629433 -45.89359856 C-163.2289474 -45.90316181 -161.28160101 -45.91283302 -159.33425522 -45.92262459 C-101.07931995 -46.21517494 -44.50152353 -41.99647088 0 0 Z " fill="#009FE2" transform="translate(835,435)"/>
<path d="M0 0 C1.5159375 0.061875 1.5159375 0.061875 3.0625 0.125 C6 1 6 1 7.87109375 3.5703125 C8.38800781 4.74335937 8.90492188 5.91640625 9.4375 7.125 C9.72117432 7.76791992 10.00484863 8.41083984 10.29711914 9.07324219 C20 32.02812457 20 32.02812457 20 42 C35.25252982 39.84674715 50.33172575 37.24646863 65.3894043 34.01904297 C75.4603883 31.86072388 84.8831195 30.77228646 95.1875 30.6875 C96.34314453 30.65849609 97.49878906 30.62949219 98.68945312 30.59960938 C112.39288055 30.49958436 123.21304332 34.644107 133.1875 44.06640625 C150.75418657 62.66447025 152.2823815 87.28705092 152.30496025 111.46186829 C152.3086801 114.66817952 152.32555545 117.87419658 152.34571838 121.08044434 C152.40060932 130.18524679 152.43176724 139.29008978 152.45629883 148.39501953 C152.47228396 153.99508839 152.50260572 159.59494335 152.54106331 165.19490051 C152.55260554 167.30928762 152.5586427 169.4237131 152.55874443 171.53813171 C152.20349855 195.6545774 152.20349855 195.6545774 162.375 216.8125 C169.58503387 222.82086156 176.96025389 223.60264974 186 223 C203.38120645 221.0326568 219.03835477 215.11737694 234.19140625 206.50390625 C237 205 237 205 239 205 C238.49210937 204.07703125 237.98421875 203.1540625 237.4609375 202.203125 C229.00901541 186.37715334 224.48249186 169.71091206 222 152 C221.86851562 151.07703125 221.73703125 150.1540625 221.6015625 149.203125 C218.0625186 118.40387806 222.8954101 86.30925433 242.140625 61.3203125 C242.75421875 60.55460938 243.3678125 59.78890625 244 59 C244.48984375 58.35804688 244.9796875 57.71609375 245.484375 57.0546875 C256.80342352 42.87408177 274.38390202 34.06790042 292 31 C296.35158039 30.75446328 300.70466682 30.76885488 305.0625 30.75 C306.22716797 30.729375 307.39183594 30.70875 308.59179688 30.6875 C327.85129923 30.60166378 343.2040704 37.92493276 357.109375 50.98046875 C373.17936791 67.57989941 376.4448516 89.54286959 376.2109375 111.70703125 C375.64642204 135.19714674 365.08655703 156.28552903 349 173 C347.91047976 174.2864523 346.82689054 175.57795696 345.75 176.875 C336.3804023 187.54949601 325.21017612 196.1283486 313.87646484 204.5859375 C310.71962953 206.96485893 307.64044618 209.44128322 304.56640625 211.92578125 C303 213 303 213 301 213 C301 213.66 301 214.32 301 215 C305.07302879 216.67758849 309.20380349 218.15116142 313.375 219.5625 C314.00921875 219.78357422 314.6434375 220.00464844 315.296875 220.23242188 C338.20505284 227.96977582 363.46636656 222.13474269 385 213 C386.08796875 212.43796875 387.1759375 211.8759375 388.296875 211.296875 C391 210 391 210 393.5 210.3125 C401.76339349 215.8902906 404.42264591 225.28088129 406.6015625 234.5625 C407.00479746 237.02934919 407.09976563 239.31570303 407.0625 241.8125 C407.05347656 242.60269531 407.04445313 243.39289063 407.03515625 244.20703125 C407.01775391 245.09455078 407.01775391 245.09455078 407 246 C376.52083103 264.3656531 340.42349377 269.70636701 305.87988281 261.49609375 C290.24185932 257.49204791 275.50276475 250.50276475 264 239 C260.27662597 239.35566674 257.4883062 240.62992005 254.25390625 242.44140625 C253.34543945 242.93898438 252.43697266 243.4365625 251.50097656 243.94921875 C250.5312793 244.48160156 249.56158203 245.01398438 248.5625 245.5625 C220.50329875 260.53215961 184.79928252 271.41997274 152.96630859 262.63818359 C137.01729345 257.4617836 125.20992589 247.77796041 117.375 232.91796875 C108.41390944 213.67402678 107.87259137 192.98872908 107.80076981 172.13401794 C107.78883455 168.97083625 107.76934952 165.80778235 107.74765015 162.64465332 C107.68650069 153.65946749 107.63201157 144.67430057 107.59863281 135.68896484 C107.57759233 130.17015487 107.54222762 124.651589 107.49787521 119.13291931 C107.48380479 117.04396956 107.47501325 114.95497675 107.47182083 112.86598206 C108.08756663 93.19349828 108.08756663 93.19349828 100 76 C89.23340661 69.53946246 75.50836351 73.31483614 63.9335022 75.87838745 C60.11641703 76.72238146 56.28910118 77.51661021 52.4609375 78.30859375 C51.72122208 78.46221878 50.98150665 78.61584381 50.21937561 78.77412415 C42.1845533 80.41599392 34.1709933 81.34536788 26 82 C26.01571045 82.94915283 26.0314209 83.89830566 26.04760742 84.8762207 C26.8559349 138.66414034 19.79148901 194.43234391 -19 235 C-19.62132813 235.68449219 -20.24265625 236.36898437 -20.8828125 237.07421875 C-37.27829895 254.5330108 -61.65011151 264.36577599 -85.375 265.203125 C-105.77991034 265.54521699 -124.01928983 262.45088527 -139.296875 247.796875 C-150 236.28900376 -150 236.28900376 -150 230 C-150.680625 230.680625 -151.36125 231.36125 -152.0625 232.0625 C-152.52914062 232.52398438 -152.99578125 232.98546875 -153.4765625 233.4609375 C-154.4717848 234.46636721 -155.44707657 235.49203399 -156.3984375 236.5390625 C-172.85323254 254.16323384 -196.75245781 264.25637106 -220.6328125 265.22265625 C-247.33954949 265.89745188 -272.30247475 259.27993007 -292.05224609 240.55078125 C-298.72110039 233.95715846 -304.26297995 227.1270919 -309 219 C-309.71542969 219.75023437 -310.43085938 220.50046875 -311.16796875 221.2734375 C-338.46873865 249.49769086 -373.71047803 264.48197404 -412.95874023 265.28295898 C-449.28024517 265.61527672 -481.52419613 256.05883834 -508 230.4375 C-524.58943775 213.81360034 -534.0234477 191.0917794 -537 168 C-537.11214844 167.14277344 -537.22429688 166.28554688 -537.33984375 165.40234375 C-541.01149901 132.0556665 -534.67691182 96.08003162 -514 69 C-510.56815387 64.7632951 -506.85055961 60.85604474 -503 57 C-501.79730469 55.77990234 -501.79730469 55.77990234 -500.5703125 54.53515625 C-482.93937082 37.62679415 -459.36643602 30.84341071 -435.5 30.75 C-434.21351563 30.729375 -432.92703125 30.70875 -431.6015625 30.6875 C-409.92430579 30.60026758 -389.11311482 37.64188976 -373.2734375 52.73828125 C-372.52320312 53.48464844 -371.77296875 54.23101563 -371 55 C-370.27039062 55.69480469 -369.54078125 56.38960937 -368.7890625 57.10546875 C-365.68518703 60.27681978 -364.07835585 61.92260705 -363.75 66.4375 C-367.72684179 77.77149909 -374.73918938 85.53415301 -385.5 91.0625 C-389.62289562 93 -389.62289562 93 -392 93 C-393.4453125 91.4609375 -393.4453125 91.4609375 -395.125 89.375 C-402.58497422 80.68956801 -412.48615966 74.61424371 -424 73 C-440.03377403 71.92016274 -453.54310107 73.55865883 -467 83 C-467.61230469 83.41636719 -468.22460938 83.83273437 -468.85546875 84.26171875 C-482.5791392 94.71934406 -488.61607945 112.83008927 -491.55859375 129.0859375 C-494.40524446 154.32791995 -491.46354866 178.40436927 -475.75 198.9375 C-463.26152435 213.20697819 -445.70861457 220.99825523 -427 223 C-398.66366127 224.37303129 -372.64103061 219.00769562 -350.97314453 199.73193359 C-348.59842765 197.53692502 -346.29903996 195.27424291 -344 193 C-343.35933594 192.41992188 -342.71867187 191.83984375 -342.05859375 191.2421875 C-336.36426658 185.9838529 -325.38170393 174.25401178 -324.82055664 166.5300293 C-324.85012451 165.55461182 -324.87969238 164.57919434 -324.91015625 163.57421875 C-324.94375244 161.93078491 -324.94375244 161.93078491 -324.97802734 160.25415039 C-325.00590332 159.07715576 -325.0337793 157.90016113 -325.0625 156.6875 C-325.44952269 118.86734114 -314.4720699 85.77396541 -288.3125 57.9375 C-266.67361919 37.02705676 -240.53425056 30.40977933 -211.2421875 30.73046875 C-192.54628208 31.21691694 -173.3559084 38.6440916 -160 52 C-159.67 46.06 -159.34 40.12 -159 34 C-144.59665969 30.14196242 -130.41526556 30.3207414 -116 34 C-115.99503478 35.13746674 -115.99503478 35.13746674 -115.98996925 36.2979126 C-115.90848342 54.81324567 -115.81630899 73.3284979 -115.71247292 91.84371948 C-115.66251048 100.79781413 -115.61606677 109.75190037 -115.578125 118.70605469 C-115.54501696 126.51729828 -115.50508438 134.32847327 -115.45720994 142.13964081 C-115.43213037 146.26940058 -115.4102962 150.39911595 -115.39665604 154.52893066 C-115.38366502 158.42938718 -115.36143442 162.32968992 -115.33261681 166.23006058 C-115.32367214 167.64882348 -115.31788222 169.06761105 -115.31578636 170.4864006 C-115.56355298 195.82367805 -115.56355298 195.82367805 -104.640625 217.66796875 C-98.56525234 222.60059274 -90.6002395 223.67949161 -83 223 C-65.98734231 220.19623798 -54.0730469 211.01969473 -44.1875 197.23828125 C-28.64194816 174.22531255 -20.44014117 146.57042626 -18 119 C-17.89042969 117.77539062 -17.78085938 116.55078125 -17.66796875 115.2890625 C-15.06601375 88.30478399 -15.06601375 88.30478399 -24.125 63.8125 C-32.61862448 51.93206493 -42.43769313 31.86520444 -41 17 C-36.94955787 9.62240898 -28.01420869 4.85044997 -20.25 2.125 C-13.58250117 0.19804555 -6.91422949 -0.39777293 0 0 Z M274.84765625 85.47265625 C260.80580508 104.68000869 260.73213614 129.54713082 264.1875 152.1875 C266.1032453 163.33860582 269.52699125 174.06750263 275 184 C279.87683742 181.33317245 284.27992957 178.45988223 288.625 175 C289.22401123 174.52506104 289.82302246 174.05012207 290.44018555 173.56079102 C307.0156735 160.24776625 322.6266683 144.93448003 331 125 C331.28488281 124.34386719 331.56976562 123.68773437 331.86328125 123.01171875 C336.48652818 111.02633452 336.02127144 97.36273387 330.96484375 85.58984375 C326.96976356 78.56121114 321.28619265 73.37031887 313.5 71.0625 C297.89226728 67.606042 284.95449404 73.396693 274.84765625 85.47265625 Z M-261 94 C-279.32219977 115.65350882 -282.04854672 143.35327911 -279.78173828 170.62597656 C-277.81964708 186.12270389 -270.40636944 203.05995701 -258 213 C-244.86589348 222.10774928 -230.22296994 225.77953972 -214.32421875 223.46484375 C-196.85261322 220.25147309 -182.57133766 212.73761537 -171.90625 198.1328125 C-158.91660766 178.30906729 -158.5171038 156.53417762 -158.35473633 133.5065918 C-158.33243192 130.70407908 -158.28343805 127.90395794 -158.21118164 125.10229492 C-158.10600219 121.02220864 -158.07569767 116.94466065 -158.05078125 112.86328125 C-158.01060379 111.62137527 -157.97042633 110.3794693 -157.92903137 109.09992981 C-157.96242354 102.28603445 -158.76255968 98.48351022 -163.35522461 93.30444336 C-177.88575821 79.09723715 -195.09111335 71.54853641 -215.328125 71.63647461 C-233.93877087 72.02191232 -248.41811705 80.83291319 -261 94 Z " fill="#009BDF" transform="translate(2679,689)"/>
<path d="M0 0 C0.80276367 0.29777344 1.60552734 0.59554687 2.43261719 0.90234375 C35.2041607 13.25735663 60.47566419 37.17215259 75 69 C90.4995759 104.16620048 91.1584469 142.75397313 87.25195312 180.40112305 C87.08701864 182.10240943 86.95922164 183.80780363 86.87304688 185.51489258 C86.52974786 190.91126323 85.54160033 193.43000695 81.375 197.1875 C80.53710938 197.96480469 79.69921875 198.74210938 78.8359375 199.54296875 C77.43214844 200.75919922 77.43214844 200.75919922 76 202 C75.6077272 202.50297104 75.21545441 203.00594208 74.81129456 203.52415466 C71.49923161 207.29437545 68.41566456 208.36914617 63.42316914 208.70088387 C59.40691616 208.83348749 55.39683491 208.82742249 51.37890625 208.8046875 C49.54073903 208.81607818 47.70258629 208.83004519 45.86445618 208.84635925 C40.82228076 208.88334964 35.78070678 208.88280657 30.73842621 208.8757515 C25.39534635 208.8744872 20.0524639 208.90723967 14.70947266 208.93530273 C2.78981947 208.99066871 -9.12961415 208.99859915 -21.04937744 208.99859619 C-28.69059407 208.99884879 -36.33178517 209.0074702 -43.97299373 209.01798058 C-81.6487645 209.06961426 -119.32423771 209.06099893 -157 209 C-156.54712267 212.65321423 -156.08489262 216.30518882 -155.62109375 219.95703125 C-155.49424194 220.98123169 -155.36739014 222.00543213 -155.23669434 223.06066895 C-154.14480687 231.59987624 -152.41790497 239.72724468 -150 248 C-149.71511719 249.01707031 -149.43023438 250.03414062 -149.13671875 251.08203125 C-144.98595325 264.74115826 -138.19289401 277.1089515 -129 288 C-128.38769531 288.72574219 -127.77539062 289.45148438 -127.14453125 290.19921875 C-110.88634318 307.84403267 -85.68946996 314.9457628 -62.44799805 316.19018555 C-58.87945266 316.2665326 -55.31922487 316.27813822 -51.75 316.25 C-49.8472229 316.23876099 -49.8472229 316.23876099 -47.90600586 316.22729492 C-8.41914067 315.77695094 27.92299259 302.30855908 63 285 C65.97 287.31 68.94 289.62 72 292 C70.27734693 304.99820047 68.14903081 317.82067833 65.48193359 330.65722656 C63.75403926 339.05685879 62.05283207 347.45190003 61.2421875 355.99609375 C60.79141004 359.72591374 59.86221498 363.34826598 59 367 C58.93538574 367.70697021 58.87077148 368.41394043 58.80419922 369.14233398 C58.02221425 375.19559164 58.02221425 375.19559164 55.28930664 377.34619141 C52.89575831 378.45373063 50.51860452 379.27920963 48 380.0625 C46.61711792 380.53864746 46.61711792 380.53864746 45.20629883 381.02441406 C42.15011904 382.05999381 39.07866743 383.03346902 36 384 C34.9176709 384.34981934 33.8353418 384.69963867 32.72021484 385.06005859 C25.18137089 387.49497157 17.61081367 389.80065769 10 392 C9.23349121 392.22171875 8.46698242 392.4434375 7.67724609 392.671875 C-4.66562396 396.16887384 -17.32804149 398.12154809 -30 400 C-30.79180664 400.12149414 -31.58361328 400.24298828 -32.39941406 400.36816406 C-83.3323717 407.93470101 -143.3536644 399.01353703 -185.64624023 368.40917969 C-192.42551445 363.31398065 -198.87998438 357.87244217 -205 352 C-205.94101562 351.12214844 -206.88203125 350.24429687 -207.8515625 349.33984375 C-237.58198392 321.08529774 -252.07400811 282.61320698 -259 243 C-259.19118408 241.92371338 -259.19118408 241.92371338 -259.38623047 240.82568359 C-261.94433257 226.2182744 -262.23941477 211.6628807 -262.25 196.875 C-262.25100708 195.89911926 -262.25201416 194.92323853 -262.25305176 193.91778564 C-262.23842528 172.9292252 -260.74829871 152.55913601 -255.54150391 132.15527344 C-254.97858119 129.91474965 -254.46233667 127.66647485 -253.94921875 125.4140625 C-248.28799814 101.38504902 -237.0237156 78.53944339 -222 59 C-221.31679688 58.0925 -220.63359375 57.185 -219.9296875 56.25 C-197.26106921 27.28933177 -164.89918257 4.76800312 -129 -4 C-127.79859375 -4.33515625 -126.5971875 -4.6703125 -125.359375 -5.015625 C-85.93495442 -15.7096986 -38.40986529 -14.5524937 0 0 Z " fill="#009FE2" transform="translate(1152,547)"/>
<path d="M0 0 C0.95229492 0.04253906 1.90458984 0.08507813 2.88574219 0.12890625 C18.97933256 0.91029439 34.35701767 3.16735363 50 7 C50.76570313 7.17869629 51.53140625 7.35739258 52.3203125 7.54150391 C84.01318702 15.05415575 112.12949398 34.49022688 129.63671875 62.01953125 C133.20341345 67.89826798 136.3146444 73.97797521 139.18164062 80.22460938 C139.89413273 81.77032615 140.6395998 83.30075914 141.390625 84.828125 C144.4721533 91.49826855 146.34454986 98.47233889 148.1875 105.5625 C148.43773926 106.5009375 148.68797852 107.439375 148.94580078 108.40625 C154.46154881 130.6333347 153.54484038 153.89535073 153.04840088 176.61004639 C153.00446888 178.77933439 152.9770203 180.94808197 152.95458984 183.11767578 C152.89171258 186.48635934 152.72342764 189.82618504 152.5 193.1875 C152.48706909 194.54319092 152.48706909 194.54319092 152.47387695 195.92626953 C151.62819593 204.59996253 145.01066399 210.34487687 138.75003052 215.75511169 C130.93981668 221.67832097 122.53836276 220.81134051 113.16796875 220.43359375 C110.9957088 220.40480417 108.82333146 220.38404055 106.65092468 220.370224 C102.33218146 220.33454462 98.01533436 220.27443278 93.69741112 220.18275386 C83.27998366 219.96446757 72.86696305 219.98291615 62.44775391 220.02392578 C58.72274895 220.03725218 54.99774239 220.05009622 51.2727356 220.06289673 C50.32904629 220.06624397 49.38535699 220.06959121 48.41307104 220.07303989 C37.71220946 220.10868666 27.01144434 220.09977315 16.31054688 220.08789062 C14.3286597 220.08584904 12.34677252 220.08381265 10.36488533 220.08178139 C7.37150905 220.07864448 4.37813292 220.07543222 1.38475692 220.07204092 C-8.82652266 220.06058677 -19.03780323 220.05529396 -29.24908769 220.05032361 C-50.16606557 220.04001387 -71.08303195 220.02255387 -92 220 C-91.71401353 223.30155236 -91.41652724 226.60197745 -91.1171875 229.90234375 C-90.99766724 231.28456116 -90.99766724 231.28456116 -90.87573242 232.69470215 C-90.05107084 241.67325439 -88.31118806 250.29489358 -86 259 C-85.72542969 260.051875 -85.45085937 261.10375 -85.16796875 262.1875 C-78.58580263 284.30838705 -64.32809195 303.36436619 -44.5234375 315.11328125 C-26.5156001 324.75605893 -7.91208964 327.23380136 12.25 327.25 C13.00599487 327.25067474 13.76198975 327.25134949 14.54089355 327.25204468 C26.93229184 327.23452605 38.82707013 326.44771174 51 324 C51.85851563 323.83902832 52.71703125 323.67805664 53.6015625 323.51220703 C75.74353369 319.31217204 96.26834319 311.38225816 116.23120117 301.078125 C117.30474854 300.53414062 118.3782959 299.99015625 119.484375 299.4296875 C120.43022461 298.93710449 121.37607422 298.44452148 122.35058594 297.93701172 C125.44705615 296.84189076 126.90817021 296.98491515 130 298 C133.375 300 133.375 300 136 303 C136.09472656 304.90576172 136.09472656 304.90576172 135.765625 307.0546875 C135.64944824 307.85616211 135.53327148 308.65763672 135.41357422 309.48339844 C135.27709473 310.31387695 135.14061523 311.14435547 135 312 C134.88285645 312.77633789 134.76571289 313.55267578 134.64501953 314.35253906 C134.24413543 316.94748662 133.81285933 319.53603735 133.375 322.125 C133.20822754 323.11983398 133.04145508 324.11466797 132.86962891 325.13964844 C130.82615716 337.20705654 128.64275716 349.25016672 126.46240234 361.29345703 C126.31685913 362.10201141 126.17131592 362.9105658 126.0213623 363.74362183 C125.73392262 365.32597044 125.44098073 366.90733066 125.14221191 368.48757935 C124.5052926 371.89971915 123.98270116 375.20610562 123.69189453 378.67089844 C123.03005561 386.09480782 123.03005561 386.09480782 120.14306641 388.63183594 C117.51322684 389.98524774 114.95316189 390.88460918 112.125 391.75 C111.10559326 392.10231689 110.08618652 392.45463379 109.03588867 392.81762695 C105.70754709 393.94164239 102.3609594 394.97797346 99 396 C97.88544434 396.35046387 96.77088867 396.70092773 95.62255859 397.06201172 C36.95833556 415.37822012 -31.22307939 422.76788866 -89 397 C-89.76812012 396.66081543 -90.53624023 396.32163086 -91.32763672 395.97216797 C-109.19134828 388.01940408 -124.56146292 378.1800056 -139 365 C-139.74926758 364.3186499 -139.74926758 364.3186499 -140.51367188 363.62353516 C-160.57855432 345.11766016 -174.4719866 321.40038732 -184 296 C-184.24830566 295.33806641 -184.49661133 294.67613281 -184.75244141 293.99414062 C-188.35516415 284.19713159 -191.00207954 274.22888587 -193 264 C-193.277229 262.64793457 -193.277229 262.64793457 -193.56005859 261.26855469 C-200.51629647 225.89246264 -199.74222559 186.36409891 -193 151 C-192.75975098 149.70618408 -192.75975098 149.70618408 -192.51464844 148.38623047 C-185.87737731 113.89637679 -169.435991 81.18738598 -145 56 C-144.45827148 55.43249023 -143.91654297 54.86498047 -143.35839844 54.28027344 C-126.59327425 36.74918127 -107.33062283 23.50933264 -85 14 C-84.01773437 13.56300781 -83.03546875 13.12601563 -82.0234375 12.67578125 C-56.60262645 2.04465051 -27.38017972 -1.37622306 0 0 Z " fill="#E0027A" transform="translate(1466,1145)"/>
<path d="M0 0 C1.57104492 0.02368652 1.57104492 0.02368652 3.17382812 0.04785156 C18.07276998 0.37055592 32.20097978 2.15927186 46.5 6.375 C47.22719238 6.58640625 47.95438477 6.7978125 48.70361328 7.015625 C76.06320667 15.11693778 97.29366476 30.14136957 111.5 55.375 C111.89832031 56.04789063 112.29664063 56.72078125 112.70703125 57.4140625 C123.25945033 76.50090817 123.97524259 99.03546339 123.65844727 120.22094727 C123.64747261 120.96407354 123.63649796 121.70719982 123.62519073 122.47284508 C123.52202039 128.91605608 123.33563804 135.35526447 123.13494873 141.79603577 C122.45599729 163.66219667 122.26298928 185.52145516 122.25161743 207.3972702 C122.25053005 209.44118035 122.24879008 211.48509025 122.24642944 213.52899933 C122.19586116 258.75892377 123.22823583 303.95021261 124.43261719 349.16040039 C124.48470148 351.11659727 124.48470148 351.11659727 124.53783798 353.11231327 C124.70201301 359.24998979 124.86925204 365.38755592 125.04266357 371.52497864 C125.07345631 372.63626349 125.10424904 373.74754835 125.13597488 374.89250851 C125.19235105 376.92462791 125.25007822 378.95671062 125.30961227 380.98873997 C125.50589642 388.12618634 125.5 395.22660453 125.5 402.375 C87.88 402.375 50.26 402.375 11.5 402.375 C11.5 369.37469952 11.5 369.37469952 12.05883789 354.41503906 C12.34225273 346.64831965 12.60633247 338.88104162 12.859375 331.11328125 C12.88390306 330.36231045 12.90843113 329.61133965 12.93370247 328.83761215 C13.92171405 298.35286149 14.60256814 267.85808276 15.35172081 237.36670399 C15.47607335 232.31608671 15.60160863 227.26549914 15.72727203 222.21491432 C15.81296874 218.74842472 15.89675281 215.28189277 15.98040771 211.81535339 C16.28617664 199.37926038 16.67324006 186.94901211 17.15721226 174.51848984 C18.88659887 137.9517602 18.88659887 137.9517602 2.5 106.375 C-6.63085408 96.71482105 -18.98727592 93.53762609 -31.85644531 92.98876953 C-57.15650712 92.44684654 -81.45644828 102.24887632 -101.5 117.375 C-102.06992676 117.80264648 -102.63985352 118.23029297 -103.22705078 118.67089844 C-109.59884207 123.24936162 -109.59884207 123.24936162 -115.5 128.375 C-115.60257145 129.95772343 -115.63520129 131.54502278 -115.64044189 133.13105774 C-115.64615991 134.16359775 -115.65187792 135.19613775 -115.6577692 136.25996685 C-115.65887919 137.40563531 -115.65998919 138.55130377 -115.66113281 139.73168945 C-115.66602691 140.93476903 -115.670921 142.13784861 -115.6759634 143.37738514 C-115.68799575 146.71216125 -115.69527657 150.04687822 -115.69987273 153.38166857 C-115.70313036 155.49175362 -115.7079403 157.60182947 -115.71326637 159.71191025 C-115.73788259 169.57916929 -115.74667491 179.44639486 -115.74918985 189.31368208 C-115.74999751 191.68019257 -115.75146267 194.04670179 -115.75312424 196.41321182 C-115.78411007 243.11883445 -115.21216845 289.72010704 -113.05648804 336.38343811 C-112.54946534 347.47792115 -112.19508685 358.57367699 -111.90234375 369.67578125 C-111.88106478 370.46151205 -111.8597858 371.24724285 -111.83786201 372.05678368 C-111.77726103 374.32336135 -111.7198841 376.58999544 -111.66381836 378.85668945 C-111.63186874 380.14219193 -111.59991913 381.4276944 -111.56700134 382.75215149 C-111.47220937 389.29245222 -111.5 395.83401237 -111.5 402.375 C-149.12 402.375 -186.74 402.375 -225.5 402.375 C-225.5 380.41346412 -225.5 380.41346412 -225.09370422 370.4810791 C-225.0645373 369.75665115 -225.03537037 369.03222321 -225.0053196 368.2858429 C-224.97520475 367.53924911 -224.94508991 366.79265533 -224.9140625 366.0234375 C-224.85185022 364.41175617 -224.78998585 362.80006138 -224.72843933 361.18835449 C-224.59818058 357.79294903 -224.46581908 354.39763534 -224.33169556 351.00238037 C-224.12142833 345.67508721 -223.91695035 340.34758154 -223.71362305 335.02001953 C-223.64483024 333.21908535 -223.57602836 331.41815151 -223.50721741 329.61721802 C-223.47317369 328.72617496 -223.43912998 327.83513191 -223.40405464 326.91708755 C-223.26687039 323.33272357 -223.1288456 319.74839215 -222.99081707 316.16406059 C-222.46005524 302.37707952 -221.93771461 288.58984217 -221.44134521 274.80157471 C-221.35701107 272.47693253 -221.27117322 270.1523443 -221.18365479 267.82781982 C-220.40277433 247.07461124 -220.40103868 226.44197982 -221.00487328 205.68390274 C-221.44117149 190.64502637 -221.73967092 175.60538635 -222 160.5625 C-222.02053436 159.3832193 -222.04106873 158.2039386 -222.06222534 156.98892212 C-222.23197727 147.21861748 -222.39733224 137.44823944 -222.5625 127.67785645 C-222.70631871 119.18103555 -222.85193246 110.68424796 -223 102.1875 C-223.02031343 101.01712881 -223.04062687 99.84675762 -223.06155586 98.64092064 C-223.34518802 82.43267757 -223.69312216 66.22798706 -224.18981934 50.02478027 C-224.56885702 37.47287962 -224.61073161 24.9319643 -224.5 12.375 C-208.63979774 10.45887669 -192.73320113 9.17316609 -176.8125 7.875 C-172.9034223 7.55407839 -168.99440598 7.23242138 -165.0854187 6.91040039 C-162.53593568 6.70055741 -159.98639597 6.49140187 -157.4367981 6.28295898 C-151.54368928 5.79954235 -145.65220884 5.30446068 -139.76318359 4.7734375 C-138.71873581 4.67969849 -137.67428802 4.58595947 -136.59819031 4.48937988 C-134.67782546 4.31572253 -132.75772153 4.13914063 -130.83796692 3.9588623 C-129.55535225 3.8429071 -129.55535225 3.8429071 -128.24682617 3.72460938 C-127.15370369 3.62279358 -127.15370369 3.62279358 -126.03849792 3.5189209 C-122.53097042 3.32006058 -119.01316021 3.375 -115.5 3.375 C-115.5 22.515 -115.5 41.655 -115.5 61.375 C-108.70822686 59.56403059 -108.70822686 59.56403059 -104.0625 55.5 C-81.35894926 34.09770858 -52.54934276 17.59372517 -24.00439453 5.44775391 C-22.3367638 4.73342661 -20.68098695 3.99075761 -19.03857422 3.22021484 C-12.57465803 0.3270136 -7.03568009 -0.1853904 0 0 Z " fill="#E0027A" transform="translate(1099.5,1146.625)"/>
<path d="M0 0 C0.93585938 0.13277344 1.87171875 0.26554687 2.8359375 0.40234375 C29.61549383 4.62434587 54.17747044 17.52435741 70.66015625 39.43359375 C84.32580113 58.57593833 91.09381416 80.28919513 96 103 C96.26683594 104.19109375 96.53367187 105.3821875 96.80859375 106.609375 C99.63040802 120.23595997 100.8128195 134.15048327 102 148 C102.09788818 149.13099121 102.19577637 150.26198242 102.29663086 151.42724609 C103.34082215 165.46760284 103.28918625 179.55290694 103.3125 193.625 C103.31466774 194.65229721 103.31466774 194.65229721 103.31687927 195.7003479 C103.35599877 218.6801133 102.4012925 241.24778265 99 264 C98.85046875 265.07830078 98.7009375 266.15660156 98.546875 267.26757812 C94.98986107 292.54543174 87.40760227 319.32213378 72 340 C71.30003906 340.94617187 70.60007812 341.89234375 69.87890625 342.8671875 C61.09450461 354.1726028 50.437243 361.34858067 38 368 C36.95779297 368.59941406 36.95779297 368.59941406 35.89453125 369.2109375 C23.45327665 376.07697205 8.89328437 378.2288667 -5 380 C-6.03785645 380.14356934 -6.03785645 380.14356934 -7.09667969 380.29003906 C-24.84669251 382.55651667 -43.54483063 381.94361843 -61 378 C-61.7542627 377.83371094 -62.50852539 377.66742187 -63.28564453 377.49609375 C-88.65046953 371.71066376 -111.43321897 357.65115373 -125.77734375 335.59765625 C-153.45132401 291.48804654 -156.24139266 237.30621465 -156.1875 186.625 C-156.18656342 185.48148071 -156.18562683 184.33796143 -156.18466187 183.15979004 C-156.09677819 133.527593 -154.05781287 75.24954912 -121 35 C-120.44957031 34.28585937 -119.89914062 33.57171875 -119.33203125 32.8359375 C-101.52601945 10.76527596 -72.57252111 1.99462151 -45.5534668 -1.12646484 C-30.14672895 -2.73116452 -15.29024732 -2.4240636 0 0 Z " fill="#FEEC00" transform="translate(604,1087)"/>
<path d="M0 0 C5.61793717 4.24359578 5.61793717 4.24359578 6.49980164 8.29766846 C6.62994 11.10278801 6.56630901 13.84332797 6.43359375 16.6484375 C6.40817001 17.69655609 6.38274628 18.74467468 6.35655212 19.82455444 C6.2668705 23.2179444 6.13406597 26.60810101 6 30 C5.93249008 32.26457332 5.86754898 34.52922469 5.80517578 36.79394531 C5.63707659 42.56838661 5.42767045 48.3403992 5.20043945 54.11279297 C5.06124146 57.65704484 4.92954068 61.20151973 4.79882812 64.74609375 C4.71137107 67.05209982 4.62349559 69.35809006 4.53515625 71.6640625 C4.49656998 72.69769928 4.4579837 73.73133606 4.41822815 74.79629517 C4.10938406 82.54405202 3.58800862 90.26869413 3 98 C4.26898132 97.98667633 5.53796265 97.97335266 6.84539795 97.95962524 C18.79354685 97.83809281 30.74157067 97.7480987 42.69019699 97.68912697 C48.83343986 97.65778973 54.97618453 97.61527167 61.11914062 97.54736328 C67.04545245 97.48225845 72.97128455 97.446312 78.89792633 97.43073654 C81.16105963 97.41963441 83.42416612 97.39795464 85.68709564 97.36561966 C88.85285042 97.3221758 92.01661317 97.31606105 95.18261719 97.31884766 C96.12201141 97.297276 97.06140564 97.27570435 98.02926636 97.253479 C100.49477751 97.27702248 102.61858738 97.36189697 105 98 C107.61892501 100.77152224 108.77455886 102.60192509 109.38058472 106.36019897 C109.32444 107.11580109 109.26829529 107.8714032 109.21044922 108.64990234 C109.12958572 109.95318985 109.12958572 109.95318985 109.04708862 111.2828064 C108.96709625 112.20783966 108.88710388 113.13287292 108.8046875 114.0859375 C108.73718292 115.0605191 108.66967834 116.03510071 108.60012817 117.03921509 C108.37887786 120.15303127 108.12692898 123.26353226 107.875 126.375 C107.72725165 128.42824851 107.58140024 130.48163446 107.4375 132.53515625 C106.62071418 143.75622436 105.39840925 154.81272596 104 166 C70.34 166 36.68 166 2 166 C1.87625 173.5075 1.7525 181.015 1.625 188.75 C1.19657354 213.44053488 0.65193351 238.1277841 0.06517792 262.8150177 C0.00085907 265.52628723 -0.0629525 268.23756829 -0.12664795 270.94885254 C-0.53481965 288.28605718 -0.96721883 305.62085027 -1.55078125 322.953125 C-1.89993799 333.3672409 -2.18196018 343.7671063 -2.1875 354.1875 C-2.19974609 355.47333984 -2.21199219 356.75917969 -2.22460938 358.08398438 C-2.24723491 372.88862374 -0.82519953 386.98604856 9.80859375 398.08984375 C20.85436035 407.71797185 38.21324635 406.79695351 52 406 C66.74205991 404.82521386 80.32010374 400.44638251 93.91796875 394.78515625 C96.81384435 393.69309059 98.10932896 393.87193325 101 395 C103.54849881 396.69094708 105.32097988 398.44136895 107 401 C108.08016577 407.42925015 106.43040483 414.19937268 105.1875 420.5 C104.81736675 422.45436242 104.44757839 424.40879019 104.078125 426.36328125 C103.89443359 427.32057129 103.71074219 428.27786133 103.52148438 429.26416016 C102.79665979 433.06677453 102.11287703 436.87585795 101.4375 440.6875 C101.3142334 441.35491211 101.1909668 442.02232422 101.06396484 442.70996094 C100.37798722 446.498738 99.84164269 450.26876961 99.4296875 454.09765625 C99.32599854 454.95593018 99.22230957 455.8142041 99.11547852 456.69848633 C98.91906556 458.3525651 98.75107271 460.01036398 98.61694336 461.6706543 C98.20151202 464.99873275 97.86403722 467.19742417 95.34912109 469.53344727 C93.28593044 470.85658581 91.21382985 471.95024616 89 473 C87.845 473.59683594 86.69 474.19367188 85.5 474.80859375 C44.59309722 493.84673935 5.39094519 501.71840096 -38 487 C-43.48938363 484.9863959 -48.77227217 482.61317113 -54 480 C-54.60924316 479.69868164 -55.21848633 479.39736328 -55.84619141 479.08691406 C-65.27912667 474.32890829 -72.53930255 468.38274987 -80 461 C-80.67804688 460.38253906 -81.35609375 459.76507812 -82.0546875 459.12890625 C-87.11070405 454.44366424 -90.57071741 448.94567745 -94 443 C-94.7734375 441.66001953 -94.7734375 441.66001953 -95.5625 440.29296875 C-107.10302997 418.80474237 -110.62826147 393.47065585 -107.53652954 369.3901825 C-102.28553247 328.16819817 -103.46904971 285.88627809 -103.3385371 244.41008174 C-103.31097722 235.83111778 -103.26706609 227.2522566 -103.22227156 218.6733681 C-103.13093557 201.11563273 -103.05858881 183.55787473 -103 166 C-103.66763367 166.00888245 -104.33526733 166.01776489 -105.02313232 166.0269165 C-111.96585538 166.11534473 -118.90841871 166.17571576 -125.8515625 166.21972656 C-128.44342546 166.23985375 -131.03524296 166.26715816 -133.62695312 166.30175781 C-137.35037449 166.35022501 -141.07319599 166.37295816 -144.796875 166.390625 C-146.53768341 166.42159271 -146.53768341 166.42159271 -148.31365967 166.45318604 C-149.93488739 166.45363922 -149.93488739 166.45363922 -151.58886719 166.45410156 C-152.53928894 166.46298401 -153.48971069 166.47186646 -154.46893311 166.48101807 C-157.75337128 165.85682512 -158.93844818 164.57446953 -161 162 C-162.98136667 152.36311335 -160.27080623 140.44246293 -159.34594727 130.68041992 C-159.06154536 127.67741991 -158.78497832 124.67377669 -158.50976562 121.66992188 C-158.33118056 119.74214563 -158.15215943 117.81440972 -157.97265625 115.88671875 C-157.89032242 114.99804611 -157.80798859 114.10937347 -157.72315979 113.19377136 C-157.64315231 112.35211929 -157.56314484 111.51046722 -157.48071289 110.64331055 C-157.41187393 109.91339401 -157.34303497 109.18347748 -157.27210999 108.43144226 C-156.91929294 105.27884107 -156.44862845 102.14039912 -156 99 C-139.5 98.67 -123 98.34 -106 98 C-105.67 76.22 -105.34 54.44 -105 32 C-99.328125 30.1025 -93.65625 28.205 -87.8125 26.25 C-86.05139893 25.65993164 -84.29029785 25.06986328 -82.47583008 24.46191406 C-74.66422629 21.8502721 -66.84357234 19.2967841 -58.96166992 16.90332031 C-54.04165991 15.40269901 -49.14724174 13.82301215 -44.25 12.25 C-43.19449951 11.91291016 -42.13899902 11.57582031 -41.05151367 11.22851562 C-35.37062583 9.4125113 -29.69802768 7.57459717 -24.03515625 5.703125 C-22.34567871 5.14963379 -22.34567871 5.14963379 -20.62207031 4.58496094 C-18.46149264 3.87666888 -16.30316109 3.16147751 -14.14746094 2.43847656 C-3.96844433 -0.8831677 -3.96844433 -0.8831677 0 0 Z " fill="#009FE2" transform="translate(1428,448)"/>
<path d="M0 0 C0.93344238 0.1338208 1.86688477 0.2676416 2.82861328 0.40551758 C25.73771063 3.91720244 44.74388134 12.2133595 59.9375 30.0625 C70.21110461 44.16991315 75.22222303 62.54450695 75.328125 79.82421875 C75.33518463 80.58589355 75.34224426 81.34756836 75.34951782 82.13232422 C75.58260542 114.68675336 75.58260542 114.68675336 72.125 127.8125 C71.83496094 128.91634033 71.83496094 128.91634033 71.5390625 130.04248047 C63.83037567 158.02810664 47.36704716 179.23777642 22.16210938 193.70507812 C17.00403392 196.50913257 11.60528337 198.71824886 6.125 200.8125 C4.91996826 201.33787354 3.71493652 201.86324707 2.47338867 202.40454102 C-2.08754621 204.10168378 -5.93672008 204.00307551 -10.73046875 203.59375 C-12.5043808 203.47375515 -14.27830735 203.3539746 -16.05224609 203.234375 C-16.99308044 203.16476562 -17.93391479 203.09515625 -18.90325928 203.0234375 C-23.07503175 202.7273204 -27.24983363 202.50290794 -31.42581177 202.27514648 C-35.88079994 202.03118373 -40.33475151 201.77041608 -44.78881836 201.51025391 C-48.22820295 201.31013168 -51.66780616 201.11407332 -55.10742188 200.91796875 C-57.31772288 200.78931214 -59.52800989 200.66041491 -61.73828125 200.53125 C-62.75497391 200.473927 -63.77166656 200.416604 -64.81916809 200.35754395 C-69.88969593 200.05649212 -74.86029668 199.62637958 -79.875 198.8125 C-79.98898053 158.45718925 -79.93860565 118.10711813 -79.46928024 77.75397491 C-79.43796432 75.04023631 -79.40783613 72.32648673 -79.37796021 69.61273193 C-79.12600927 47.0026011 -78.65805907 24.41076864 -77.875 1.8125 C-70.74442863 1.37895364 -63.61345554 0.95252709 -56.48217773 0.53076172 C-54.06248619 0.38684553 -51.64288662 0.24137325 -49.22338867 0.09423828 C-14.08597939 -2.03970064 -14.08597939 -2.03970064 0 0 Z " fill="#FEEC00" transform="translate(682.875,476.1875)"/>
<path d="M0 0 C12.12718153 8.23671658 20.2554325 19.81620758 23.84765625 34.1015625 C26.61906337 51.28428664 25.8372271 70.21144746 15.84765625 85.1015625 C6.3032115 97.44571105 -4.79104203 104.56389702 -20.15234375 108.1015625 C-24.98107655 108.64541068 -29.73399221 108.72281429 -34.58984375 108.6640625 C-35.86448486 108.65383057 -37.13912598 108.64359863 -38.45239258 108.63305664 C-52.19398012 108.32216897 -62.47687413 105.02191254 -73.15234375 96.1015625 C-73.93351562 95.45574219 -74.7146875 94.80992188 -75.51953125 94.14453125 C-85.3572839 85.21768162 -91.45745294 71.86280732 -92.31201172 58.62890625 C-93.09374829 40.38622382 -91.21355406 24.0496461 -78.77734375 9.7265625 C-58.56768121 -11.39710487 -24.96817542 -15.03659635 0 0 Z " fill="#FEE702" transform="translate(1735.15234375,1153.8984375)"/>
<path d="M0 0 C1.13824219 -0.01611328 2.27648438 -0.03222656 3.44921875 -0.04882812 C14.12897454 -0.05488928 24.38509906 1.38668301 33.75 6.75 C34.78125 7.32621094 35.8125 7.90242187 36.875 8.49609375 C48.99545782 16.15371995 56.1014281 28.19673589 59.6796875 41.86328125 C61.12971039 48.29171608 62.34165494 54.72948274 62.75 61.3125 C62.82927734 62.43398438 62.82927734 62.43398438 62.91015625 63.578125 C63.07004937 67.66582744 62.70397862 70.62971832 61.22949219 74.46459961 C60.9540155 75.18514023 60.67853882 75.90568085 60.39471436 76.64805603 C60.18195862 77.19732254 59.96920288 77.74658905 59.75 78.3125 C48.95929406 78.68702619 38.16856707 79.06094016 27.37781525 79.43414211 C22.36335789 79.60758666 17.3489071 79.78121646 12.33447266 79.95532227 C-0.86016124 80.41334352 -14.05491528 80.8676369 -27.25 81.3125 C-28.07098175 81.34018085 -28.8919635 81.36786171 -29.73782349 81.39638138 C-34.23733724 81.54763542 -38.73692256 81.69635066 -43.23664856 81.84115791 C-45.15825088 81.90328373 -47.07979849 81.96709492 -49.00134277 82.0309906 C-60.08522851 82.3813747 -71.16184835 82.41229336 -82.25 82.3125 C-82.47835994 76.9910213 -81.73858876 72.4309471 -80.1875 67.375 C-79.96489502 66.64063721 -79.74229004 65.90627441 -79.51293945 65.1496582 C-72.03741946 41.32127894 -58.51989859 20.34382842 -36.3359375 7.8828125 C-24.50115902 1.86055814 -13.16746684 -0.03678063 0 0 Z " fill="#FDEC00" transform="translate(1080.25,610.6875)"/>
<path d="M0 0 C1.01578125 -0.00773437 2.0315625 -0.01546875 3.078125 -0.0234375 C18.60028234 0.0163629 32.99954594 4.51028694 44.828125 14.84765625 C58.69158582 29.05458119 61.97077294 49.11642467 62.23046875 68.07421875 C61.9693036 71.67298603 61.02974035 74.80061215 60 78.25 C47.22174925 79.07765184 34.44639849 79.59643796 21.6484375 80.00390625 C19.61707386 80.06968391 17.585712 80.13551665 15.55435181 80.20140076 C11.31362925 80.33830835 7.07285103 80.47331723 2.83203125 80.60717773 C-1.44770638 80.74252394 -5.72731296 80.88122372 -10.00683594 81.02319336 C-34.34463405 81.83003306 -58.64686204 82.51733982 -83 82.25 C-79.12722578 54.81751272 -67.3542856 30.4538582 -45 13.25 C-30.93894195 3.81809686 -16.80986918 -0.12799393 0 0 Z " fill="#FEEC00" transform="translate(1459,1219.75)"/>
<path d="M0 0 C12.23117195 13.18903481 15.68855098 28.557846 15.07714844 45.99414062 C14.12224345 61.23018017 6.05090859 73.87732645 -5.0234375 83.875 C-15.1496804 92.02994562 -27.04923028 95.49583778 -39.8671875 95.41015625 C-40.75083984 95.4045166 -41.63449219 95.39887695 -42.54492188 95.39306641 C-49.1111773 95.27106644 -54.93445802 94.61831239 -61.0546875 92.09765625 C-62.52615234 91.494375 -62.52615234 91.494375 -64.02734375 90.87890625 C-78.21269328 84.42286854 -87.3893109 73.62733716 -93.27734375 59.32421875 C-98.49286414 44.38529099 -96.91882426 28.09034729 -90.58203125 13.76953125 C-83.41838156 0.55996444 -72.67115806 -8.59909608 -58.4296875 -13.21484375 C-37.4834042 -19.05352899 -16.24448031 -14.96202133 0 0 Z M-71.5234375 13.90625 C-78.6347526 24.08341268 -80.9226353 34.51943792 -79.65234375 46.828125 C-77.62002392 57.94610998 -71.93846945 67.89150114 -62.6796875 74.47265625 C-52.2081716 80.77657886 -40.79604941 81.79885153 -28.86328125 79.4765625 C-18.54419425 76.17386751 -10.88961578 69.28035824 -5.4609375 60.0234375 C0.33268218 47.96948988 0.30366385 35.57838966 -4.0546875 23.09765625 C-8.31855923 13.64060742 -15.50043157 6.11008054 -25.0234375 1.83984375 C-41.64146756 -4.23212877 -60.23580978 -0.12341936 -71.5234375 13.90625 Z " fill="#DC027B" transform="translate(4893.0546875,890.90234375)"/>
<path d="M0 0 C12.12718153 8.23671658 20.2554325 19.81620758 23.84765625 34.1015625 C26.61906337 51.28428664 25.8372271 70.21144746 15.84765625 85.1015625 C6.3032115 97.44571105 -4.79104203 104.56389702 -20.15234375 108.1015625 C-24.98107655 108.64541068 -29.73399221 108.72281429 -34.58984375 108.6640625 C-35.86448486 108.65383057 -37.13912598 108.64359863 -38.45239258 108.63305664 C-52.19398012 108.32216897 -62.47687413 105.02191254 -73.15234375 96.1015625 C-73.93351562 95.45574219 -74.7146875 94.80992188 -75.51953125 94.14453125 C-85.3572839 85.21768162 -91.45745294 71.86280732 -92.31201172 58.62890625 C-93.09374829 40.38622382 -91.21355406 24.0496461 -78.77734375 9.7265625 C-58.56768121 -11.39710487 -24.96817542 -15.03659635 0 0 Z M-71.15234375 18.1015625 C-73.51981996 20.94961614 -75.40395163 23.83971845 -77.15234375 27.1015625 C-77.56484375 27.84019531 -77.97734375 28.57882812 -78.40234375 29.33984375 C-83.56681369 40.58332518 -82.73866698 56.44293096 -79.15234375 68.1015625 C-74.78545167 79.42684655 -67.29217875 88.86834122 -56.15234375 94.1015625 C-42.92146167 99.72700048 -28.98185326 99.87808111 -15.375 95.42578125 C-3.69020733 90.62439372 4.51261125 83.18718032 9.78125 71.7109375 C15.12468734 58.6361531 15.95091411 44.51640912 11.171875 31.1015625 C5.61001427 18.50124084 -2.41067414 10.29331743 -15.15234375 5.1015625 C-35.50495222 -2.64736641 -56.39561855 2.77536636 -71.15234375 18.1015625 Z " fill="#E00778" transform="translate(1735.15234375,1153.8984375)"/>
<path d="M0 0 C7.858125 -0.1546875 7.858125 -0.1546875 15.875 -0.3125 C17.50679199 -0.35802002 19.13858398 -0.40354004 20.81982422 -0.45043945 C29.10303539 -0.52910002 36.1326178 -0.19232183 43 5 C47.69158132 10.02562002 48.4089826 15.51737938 48.34765625 22.140625 C47.63581938 27.99528332 44.4808536 31.68368569 40.1875 35.5 C39.465625 35.995 38.74375 36.49 38 37 C39.48380268 41.51885363 42.04119592 44.85644412 45 48.5 C47.95880408 52.14355588 50.51619732 55.48114637 52 60 C50.10787298 60.53414112 48.21108364 61.05178329 46.3125 61.5625 C44.72888672 61.99755859 44.72888672 61.99755859 43.11328125 62.44140625 C39.9019754 63.01758785 38.05363892 63.11845378 35 62 C33.375 60.25 33.375 60.25 32 58 C31.50242187 57.19433594 31.00484375 56.38867188 30.4921875 55.55859375 C29.99976563 54.71425781 29.50734375 53.86992188 29 53 C28.50757813 52.16597656 28.01515625 51.33195312 27.5078125 50.47265625 C24 44.35875706 24 44.35875706 24 42 C20.7 42 17.4 42 14 42 C14 48.27 14 54.54 14 61 C9.38 61 4.76 61 0 61 C0 40.87 0 20.74 0 0 Z " fill="#E00578" transform="translate(1679,1171)"/>
<path d="M0 0 C3.8124338 -0.05872928 7.62474906 -0.09383916 11.4375 -0.125 C12.50677734 -0.14175781 13.57605469 -0.15851562 14.67773438 -0.17578125 C31.44370686 -0.27832542 31.44370686 -0.27832542 36.9375 4.8125 C37.48277344 5.29332031 38.02804687 5.77414062 38.58984375 6.26953125 C42.25654361 10.7691103 42.48464717 15.62148482 42.38671875 21.2109375 C41.49168748 27.66601149 37.46318097 31.53681903 33 36 C36.3 39.3 39.6 42.6 43 46 C39.34848485 53.3030303 39.34848485 53.3030303 35 55 C31.90832671 53.83482563 29.93987027 52.15301651 27.6875 49.77734375 C27.08679687 49.15666016 26.48609375 48.53597656 25.8671875 47.89648438 C24.62044357 46.58844655 23.37565526 45.278542 22.1328125 43.96679688 C21.53210937 43.34740234 20.93140625 42.72800781 20.3125 42.08984375 C19.77238281 41.52128662 19.23226562 40.95272949 18.67578125 40.36694336 C16.79602333 38.83361518 15.36904099 38.40548537 13 38 C13.01160156 39.07121094 13.02320312 40.14242187 13.03515625 41.24609375 C13.04453299 42.64322743 13.05363331 44.04036299 13.0625 45.4375 C13.07087891 46.14455078 13.07925781 46.85160156 13.08789062 47.58007812 C13.09653588 49.38693559 13.05220011 51.19387603 13 53 C12 54 12 54 9.53125 54.1328125 C8.03078125 54.12894531 8.03078125 54.12894531 6.5 54.125 C5.4996875 54.12757813 4.499375 54.13015625 3.46875 54.1328125 C1 54 1 54 0 53 C-0.09346915 51.34261557 -0.11744977 49.68125356 -0.11352539 48.02124023 C-0.11344986 46.96021591 -0.11337433 45.89919159 -0.11329651 44.80601501 C-0.10813522 43.651866 -0.10297394 42.49771698 -0.09765625 41.30859375 C-0.0962413 40.13361832 -0.09482635 38.95864288 -0.09336853 37.74806213 C-0.08774992 33.97784936 -0.07519426 30.20769496 -0.0625 26.4375 C-0.0574874 23.88867273 -0.05292408 21.33984453 -0.04882812 18.79101562 C-0.03777444 12.52732367 -0.02101821 6.26366601 0 0 Z M13 12 C13 16.29 13 20.58 13 25 C14.918125 25.061875 16.83625 25.12375 18.8125 25.1875 C19.89144531 25.22230469 20.97039062 25.25710938 22.08203125 25.29296875 C24.97304578 25.23795007 24.97304578 25.23795007 26.875 23.71875 C28.69066581 20.94481612 28.18182749 18.21228565 28 15 C22.7347804 11.75986486 19.00352801 11.72711236 13 12 Z " fill="#DC027B" transform="translate(4833,902)"/>
<path d="M0 0 C10.79184682 -0.71155034 10.79184682 -0.71155034 13.91015625 1.125 C16.10536104 3.58260536 16.97353018 5.85588656 17.5625 9.0625 C16.87020639 12.67781108 15.54408967 14.38108416 13 17 C9.14854957 18.92572521 4.19956748 18.04883218 0 18 C0 12.06 0 6.12 0 0 Z " fill="#FEE802" transform="translate(1694,1183)"/>
</svg>
